<svg width="10" height="10" viewBox="0 0 10 10" fill="none" xmlns="http://www.w3.org/2000/svg">
<mask id="mask0_635_19635" style="mask-type:alpha" maskUnits="userSpaceOnUse" x="0" y="0" width="10" height="10">
<rect width="10" height="10" fill="#D9D9D9"/>
</mask>
<g mask="url(#mask0_635_19635)">
<path d="M5.00065 6.2498C5.34787 6.2498 5.64301 6.12827 5.88607 5.88521C6.12912 5.64216 6.25065 5.34702 6.25065 4.9998C6.25065 4.65257 6.12912 4.35744 5.88607 4.11438C5.64301 3.87132 5.34787 3.7498 5.00065 3.7498C4.65343 3.7498 4.35829 3.87132 4.11523 4.11438C3.87218 4.35744 3.75065 4.65257 3.75065 4.9998C3.75065 5.34702 3.87218 5.64216 4.11523 5.88521C4.35829 6.12827 4.65343 6.2498 5.00065 6.2498ZM5.00065 9.16646C4.42426 9.16646 3.8826 9.05702 3.37565 8.83813C2.86871 8.61952 2.42773 8.32271 2.05273 7.94771C1.67773 7.57271 1.38093 7.13174 1.16232 6.6248C0.943429 6.11785 0.833984 5.57619 0.833984 4.9998C0.833984 4.42341 0.943429 3.88174 1.16232 3.3748C1.38093 2.86785 1.67773 2.42688 2.05273 2.05188C2.42773 1.67688 2.86871 1.37994 3.37565 1.16105C3.8826 0.942435 4.42426 0.83313 5.00065 0.83313C5.57704 0.83313 6.11871 0.942435 6.62565 1.16105C7.1326 1.37994 7.57357 1.67688 7.94857 2.05188C8.32357 2.42688 8.62037 2.86785 8.83898 3.3748C9.05787 3.88174 9.16732 4.42341 9.16732 4.9998C9.16732 5.57619 9.05787 6.11785 8.83898 6.6248C8.62037 7.13174 8.32357 7.57271 7.94857 7.94771C7.57357 8.32271 7.1326 8.61952 6.62565 8.83813C6.11871 9.05702 5.57704 9.16646 5.00065 9.16646ZM5.00065 8.33313C5.93121 8.33313 6.7194 8.01021 7.36523 7.36438C8.01107 6.71855 8.33398 5.93035 8.33398 4.9998C8.33398 4.06924 8.01107 3.28105 7.36523 2.63521C6.7194 1.98938 5.93121 1.66646 5.00065 1.66646C4.0701 1.66646 3.2819 1.98938 2.63607 2.63521C1.99023 3.28105 1.66732 4.06924 1.66732 4.9998C1.66732 5.93035 1.99023 6.71855 2.63607 7.36438C3.2819 8.01021 4.0701 8.33313 5.00065 8.33313Z" fill="#2F80ED"/>
</g>
</svg>
