<svg width="16" height="17" viewBox="0 0 16 17" fill="none" xmlns="http://www.w3.org/2000/svg">
<path d="M8.0013 10.8118C8.64366 10.8118 9.18967 10.587 9.63932 10.1374C10.089 9.68772 10.3138 9.14171 10.3138 8.49935C10.3138 7.85699 10.089 7.31098 9.63932 6.86133C9.18967 6.41168 8.64366 6.18685 8.0013 6.18685C7.35894 6.18685 6.81293 6.41168 6.36328 6.86133C5.91363 7.31098 5.6888 7.85699 5.6888 8.49935C5.6888 9.14171 5.91363 9.68772 6.36328 10.1374C6.81293 10.587 7.35894 10.8118 8.0013 10.8118ZM8.0013 16.2077C6.93498 16.2077 5.9329 16.0052 4.99505 15.6003C4.05721 15.1958 3.24141 14.6467 2.54766 13.953C1.85391 13.2592 1.30482 12.4434 0.900386 11.5056C0.495441 10.5678 0.292969 9.56567 0.292969 8.49935C0.292969 7.43303 0.495441 6.43095 0.900386 5.4931C1.30482 4.55525 1.85391 3.73945 2.54766 3.0457C3.24141 2.35195 4.05721 1.80261 4.99505 1.39766C5.9329 0.993231 6.93498 0.791016 8.0013 0.791016C9.06762 0.791016 10.0697 0.993231 11.0076 1.39766C11.9454 1.80261 12.7612 2.35195 13.4549 3.0457C14.1487 3.73945 14.6978 4.55525 15.1022 5.4931C15.5072 6.43095 15.7096 7.43303 15.7096 8.49935C15.7096 9.56567 15.5072 10.5678 15.1022 11.5056C14.6978 12.4434 14.1487 13.2592 13.4549 13.953C12.7612 14.6467 11.9454 15.1958 11.0076 15.6003C10.0697 16.0052 9.06762 16.2077 8.0013 16.2077ZM8.0013 14.666C9.72283 14.666 11.181 14.0686 12.3758 12.8738C13.5706 11.679 14.168 10.2209 14.168 8.49935C14.168 6.77782 13.5706 5.31966 12.3758 4.12487C11.181 2.93008 9.72283 2.33268 8.0013 2.33268C6.27977 2.33268 4.82161 2.93008 3.62682 4.12487C2.43203 5.31966 1.83464 6.77782 1.83464 8.49935C1.83464 10.2209 2.43203 11.679 3.62682 12.8738C4.82161 14.0686 6.27977 14.666 8.0013 14.666Z" fill="#2F80ED"/>
</svg>
