<svg width="32" height="32" viewBox="0 0 32 32" fill="none" xmlns="http://www.w3.org/2000/svg">
<rect width="32" height="32" rx="16" fill="#0047C3"/>
<mask id="mask0_2562_27753" style="mask-type:alpha" maskUnits="userSpaceOnUse" x="5" y="6" width="20" height="20">
<rect x="5.92188" y="6.60889" width="18.7822" height="18.7822" fill="#D9D9D9"/>
</mask>
<g mask="url(#mask0_2562_27753)">
<path d="M9.2936 8.56537H21.3334C21.7288 8.56537 22.0634 8.70232 22.3373 8.97623C22.6112 9.25014 22.7481 9.58475 22.7481 9.98006V18.1069C22.7481 18.5022 22.6112 18.8369 22.3373 19.1108C22.0634 19.3847 21.7288 19.5216 21.3334 19.5216H18.0225V23.1486L15.3135 21.7941L12.6046 23.1486V19.5216H9.2936C8.89829 19.5216 8.56367 19.3847 8.28977 19.1108C8.01586 18.8369 7.87891 18.5022 7.87891 18.1069V9.98006C7.87891 9.58475 8.01586 9.25014 8.28977 8.97623C8.56367 8.70232 8.89829 8.56537 9.2936 8.56537ZM9.05278 16.617H21.5743V14.6004H9.05278V16.617Z" fill="#00FFB3"/>
</g>
</svg>
