<svg width="28" height="30" viewBox="0 0 28 30" fill="none" xmlns="http://www.w3.org/2000/svg">
<path d="M12.5 30V22.5C12.5 21.1 12.2875 20.0625 11.8625 19.3875C11.4375 18.7125 10.875 18.05 10.175 17.4L12.3125 15.2625C12.6125 15.5375 12.9 15.831 13.175 16.143C13.45 16.456 13.725 16.7875 14 17.1375C14.35 16.6625 14.7065 16.2435 15.0695 15.8805C15.4315 15.5185 15.8 15.1625 16.175 14.8125C17.125 13.9375 17.9875 12.925 18.7625 11.775C19.5375 10.625 19.95 8.6125 20 5.7375L17.6375 8.1L15.5 6L21.5 0L27.5 6L25.4 8.1L23 5.7375C22.95 9.3125 22.4 11.856 21.35 13.368C20.3 14.881 19.25 16.1125 18.2 17.0625C17.4 17.7875 16.75 18.4935 16.25 19.1805C15.75 19.8685 15.5 20.975 15.5 22.5V30H12.5ZM5.3 9.2625C5.2 8.7625 5.131 8.2125 5.093 7.6125C5.056 7.0125 5.025 6.3875 5 5.7375L2.6 8.1L0.5 6L6.5 0L12.5 6L10.3625 8.1L8 5.775C8 6.3 8.025 6.794 8.075 7.257C8.125 7.719 8.175 8.15 8.225 8.55L5.3 9.2625ZM8.525 15.8625C8.025 15.3375 7.544 14.725 7.082 14.025C6.619 13.325 6.2125 12.4625 5.8625 11.4375L8.75 10.725C9 11.4 9.2875 11.975 9.6125 12.45C9.9375 12.925 10.2875 13.35 10.6625 13.725L8.525 15.8625Z" fill="#1C1B1F"/>
</svg>
