<svg width="28" height="28" viewBox="0 0 28 28" fill="none" xmlns="http://www.w3.org/2000/svg">
<path d="M19.093 7.48453C16.888 7.48453 15.9562 8.53672 14.4205 8.53672C12.8461 8.53672 11.6452 7.49218 9.73437 7.49218C7.86406 7.49218 5.86961 8.63406 4.60304 10.5793C2.82461 13.3224 3.12648 18.4887 6.00687 22.89C7.03718 24.4655 8.41312 26.2325 10.2178 26.2516H10.2506C11.8191 26.2516 12.285 25.2246 14.4435 25.2126H14.4763C16.6026 25.2126 17.0291 26.2456 18.591 26.2456H18.6238C20.4285 26.2265 21.8783 24.2687 22.9086 22.6991C23.6502 21.5704 23.9258 21.0038 24.4945 19.7269C20.3279 18.1453 19.6585 12.2385 23.7792 9.9739C22.5214 8.3989 20.7539 7.48671 19.0876 7.48671L19.093 7.48453Z" fill="white"/>
<path d="M18.6074 1.75C17.2949 1.83914 15.7637 2.67477 14.8668 3.76578C14.053 4.75453 13.3837 6.22125 13.6462 7.64367H13.7512C15.149 7.64367 16.5796 6.80203 17.4152 5.72359C18.2202 4.69711 18.8305 3.24242 18.6074 1.75Z" fill="white"/>
</svg>
