<svg width="20" height="20" viewBox="0 0 20 20" fill="none" xmlns="http://www.w3.org/2000/svg">
<rect width="20" height="20" rx="10" fill="#0047C3"/>
<path d="M11.0049 10.9441L14.3808 8.66702C14.9533 10.5438 14.2682 12.6457 12.5568 13.7968C10.4605 15.2106 7.61344 14.657 6.19926 12.5581C4.78509 10.4624 5.342 7.61604 7.43822 6.2022C8.96189 5.17626 10.8798 5.18564 12.3534 6.07397L14.4934 4.63198C12.1625 2.68017 8.73351 2.41116 6.08662 4.19407C2.88284 6.3586 2.03497 10.7095 4.19689 13.9125C6.35882 17.1187 10.7077 17.9632 13.9115 15.8049C16.7367 13.9 17.7316 10.2998 16.4457 7.27509C16.2737 6.86846 16.0609 6.4712 15.8043 6.0896C15.6041 5.79246 15.3882 5.5172 15.1505 5.26384L9.66898 8.96104C9.12146 9.33013 8.97755 10.0746 9.34673 10.622C9.71591 11.1662 10.4574 11.3132 11.0049 10.9441Z" fill="white"/>
<path d="M8.43919 9.30701L10.1977 11.9161C10.2196 11.9505 10.2666 11.9567 10.2978 11.9348L11.7122 10.9807C11.7466 10.9588 11.7529 10.9119 11.731 10.8806L9.97243 8.27154C9.95053 8.23712 9.90358 8.23087 9.87231 8.25276L8.45795 9.20691C8.42668 9.2288 8.41727 9.27261 8.43919 9.30701Z" fill="white"/>
<path d="M7.70474 10.6673C7.76414 10.7549 7.88606 10.7799 7.9736 10.7205L9.03345 10.0039C9.12099 9.94444 9.14601 9.82238 9.0866 9.73477C9.0272 9.64715 8.90528 9.62212 8.81772 9.68158L7.75789 10.3982C7.67035 10.4576 7.64533 10.5765 7.70474 10.6673Z" fill="white"/>
<path d="M8.707 11.0101C8.76638 11.0977 8.88823 11.1227 8.97572 11.0633L10.035 10.3467C10.1225 10.2872 10.1474 10.1652 10.0881 10.0776C10.0287 9.98993 9.90685 9.96489 9.81936 10.0243L8.76013 10.7409C8.6695 10.8004 8.64764 10.9193 8.707 11.0101Z" fill="white"/>
<path d="M8.65879 12.0871C8.71837 12.1747 8.84068 12.1997 8.92849 12.1403L9.99167 11.4237C10.0795 11.3642 10.1046 11.2422 10.045 11.1546C9.9854 11.067 9.86309 11.0419 9.77528 11.1014L8.7121 11.818C8.62116 11.8774 8.59919 11.9963 8.65879 12.0871Z" fill="white"/>
<path d="M10.6571 9.48303L9.90797 9.80512L10.0584 10.0428L9.36572 10.3242L10.4659 10.196L10.3092 9.95835L10.9141 9.8833L10.6571 9.48303Z" fill="#0245B8"/>
</svg>
