<svg width="23" height="38" viewBox="0 0 23 38" fill="none" xmlns="http://www.w3.org/2000/svg">
<path d="M8.68135 37.9998C7.93959 37.9998 7.36987 37.3427 7.47499 36.6084L9.38823 23.2449H1.99471C1.4666 23.2449 1.14058 23.1043 1.01665 22.8233C0.894127 22.5423 0.973695 22.1558 1.25535 21.664L13.2621 0.672192C13.4792 0.292734 13.8828 0.0585938 14.32 0.0585938C15.0617 0.0585938 15.6315 0.715687 15.5263 1.44996L13.6131 14.8135H21.0066C21.5347 14.8135 21.86 14.954 21.9826 15.2351C22.1065 15.5161 22.0276 15.9025 21.746 16.3944L9.73919 37.3862C9.52215 37.7656 9.11849 37.9998 8.68135 37.9998Z" fill="url(#paint0_linear_2610_27084)"/>
<defs>
<linearGradient id="paint0_linear_2610_27084" x1="16.5002" y1="-1.5" x2="8.00024" y2="38" gradientUnits="userSpaceOnUse">
<stop stop-color="#46FFBD"/>
<stop offset="1" stop-color="#3C68FF"/>
</linearGradient>
</defs>
</svg>
