<svg width="14" height="14" viewBox="0 0 14 14" fill="none" xmlns="http://www.w3.org/2000/svg">
<path d="M0.833496 13.375V11.9583H12.1668V13.375H0.833496ZM3.66683 10.5417C2.88766 10.5417 2.22065 10.2642 1.66579 9.70937C1.11093 9.15451 0.833496 8.4875 0.833496 7.70833V0.625H12.1668C12.5564 0.625 12.89 0.763597 13.1677 1.04079C13.4449 1.31846 13.5835 1.65208 13.5835 2.04167V4.16667C13.5835 4.55625 13.4449 4.88964 13.1677 5.16683C12.89 5.4445 12.5564 5.58333 12.1668 5.58333H10.7502V7.70833C10.7502 8.4875 10.4727 9.15451 9.91787 9.70937C9.36301 10.2642 8.696 10.5417 7.91683 10.5417H3.66683ZM3.66683 9.125H7.91683C8.30641 9.125 8.64004 8.98617 8.9177 8.7085C9.1949 8.4313 9.3335 8.09792 9.3335 7.70833V2.04167H2.25016V7.70833C2.25016 8.09792 2.389 8.4313 2.66666 8.7085C2.94386 8.98617 3.27725 9.125 3.66683 9.125ZM10.7502 4.16667H12.1668V2.04167H10.7502V4.16667Z" fill="#4F4F4F"/>
</svg>
