<svg width="17" height="16" viewBox="0 0 17 16" fill="none" xmlns="http://www.w3.org/2000/svg">
<mask id="mask0_1667_18558" style="mask-type:alpha" maskUnits="userSpaceOnUse" x="0" y="0" width="17" height="16">
<rect x="0.400391" width="16" height="16" fill="#D9D9D9"/>
</mask>
<g mask="url(#mask0_1667_18558)">
<path d="M3.9334 14.3334C3.60007 14.3334 3.31673 14.2167 3.0834 13.9834C2.85007 13.75 2.7334 13.4667 2.7334 13.1334V4.20004C2.7334 3.86671 2.85007 3.58337 3.0834 3.35004C3.31673 3.11671 3.60007 3.00004 3.9334 3.00004H4.86673V1.58337H5.8834V3.00004H10.9334V1.58337H11.9334V3.00004H12.8667C13.2001 3.00004 13.4834 3.11671 13.7167 3.35004C13.9501 3.58337 14.0667 3.86671 14.0667 4.20004V13.1334C14.0667 13.4667 13.9501 13.75 13.7167 13.9834C13.4834 14.2167 13.2001 14.3334 12.8667 14.3334H3.9334ZM3.9334 13.3334H12.8667C12.9112 13.3334 12.9556 13.3112 13.0001 13.2667C13.0445 13.2223 13.0667 13.1778 13.0667 13.1334V6.86671H3.7334V13.1334C3.7334 13.1778 3.75562 13.2223 3.80007 13.2667C3.84451 13.3112 3.88895 13.3334 3.9334 13.3334ZM3.7334 5.86671H13.0667V4.20004C13.0667 4.1556 13.0445 4.11115 13.0001 4.06671C12.9556 4.02226 12.9112 4.00004 12.8667 4.00004H3.9334C3.88895 4.00004 3.84451 4.02226 3.80007 4.06671C3.75562 4.11115 3.7334 4.1556 3.7334 4.20004V5.86671ZM8.40007 9.38337C8.2334 9.38337 8.09451 9.32493 7.9834 9.20804C7.87229 9.0916 7.81673 8.9556 7.81673 8.80004C7.81673 8.63337 7.87229 8.4916 7.9834 8.37471C8.09451 8.25826 8.2334 8.20004 8.40007 8.20004C8.56673 8.20004 8.70562 8.25826 8.81673 8.37471C8.92784 8.4916 8.9834 8.63337 8.9834 8.80004C8.9834 8.9556 8.92784 9.0916 8.81673 9.20804C8.70562 9.32493 8.56673 9.38337 8.40007 9.38337ZM5.7334 9.38337C5.56673 9.38337 5.42784 9.32493 5.31673 9.20804C5.20562 9.0916 5.15007 8.9556 5.15007 8.80004C5.15007 8.63337 5.20562 8.4916 5.31673 8.37471C5.42784 8.25826 5.56673 8.20004 5.7334 8.20004C5.90007 8.20004 6.03895 8.25826 6.15007 8.37471C6.26118 8.4916 6.31673 8.63337 6.31673 8.80004C6.31673 8.9556 6.26118 9.0916 6.15007 9.20804C6.03895 9.32493 5.90007 9.38337 5.7334 9.38337ZM11.0667 9.38337C10.9001 9.38337 10.7612 9.32493 10.6501 9.20804C10.539 9.0916 10.4834 8.9556 10.4834 8.80004C10.4834 8.63337 10.539 8.4916 10.6501 8.37471C10.7612 8.25826 10.9001 8.20004 11.0667 8.20004C11.2334 8.20004 11.3723 8.25826 11.4834 8.37471C11.5945 8.4916 11.6501 8.63337 11.6501 8.80004C11.6501 8.9556 11.5945 9.0916 11.4834 9.20804C11.3723 9.32493 11.2334 9.38337 11.0667 9.38337ZM8.40007 12C8.2334 12 8.09451 11.9418 7.9834 11.8254C7.87229 11.7085 7.81673 11.5723 7.81673 11.4167C7.81673 11.25 7.87229 11.1085 7.9834 10.992C8.09451 10.8752 8.2334 10.8167 8.40007 10.8167C8.56673 10.8167 8.70562 10.8752 8.81673 10.992C8.92784 11.1085 8.9834 11.25 8.9834 11.4167C8.9834 11.5723 8.92784 11.7085 8.81673 11.8254C8.70562 11.9418 8.56673 12 8.40007 12ZM5.7334 12C5.56673 12 5.42784 11.9418 5.31673 11.8254C5.20562 11.7085 5.15007 11.5723 5.15007 11.4167C5.15007 11.25 5.20562 11.1085 5.31673 10.992C5.42784 10.8752 5.56673 10.8167 5.7334 10.8167C5.90007 10.8167 6.03895 10.8752 6.15007 10.992C6.26118 11.1085 6.31673 11.25 6.31673 11.4167C6.31673 11.5723 6.26118 11.7085 6.15007 11.8254C6.03895 11.9418 5.90007 12 5.7334 12ZM11.0667 12C10.9001 12 10.7612 11.9418 10.6501 11.8254C10.539 11.7085 10.4834 11.5723 10.4834 11.4167C10.4834 11.25 10.539 11.1085 10.6501 10.992C10.7612 10.8752 10.9001 10.8167 11.0667 10.8167C11.2334 10.8167 11.3723 10.8752 11.4834 10.992C11.5945 11.1085 11.6501 11.25 11.6501 11.4167C11.6501 11.5723 11.5945 11.7085 11.4834 11.8254C11.3723 11.9418 11.2334 12 11.0667 12Z" fill="#232323"/>
</g>
</svg>
