<svg width="13" height="12" viewBox="0 0 13 12" fill="none" xmlns="http://www.w3.org/2000/svg">
<mask id="mask0_668_18373" style="mask-type:alpha" maskUnits="userSpaceOnUse" x="0" y="0" width="13" height="12">
<rect x="0.5" width="12" height="12" fill="#D9D9D9"/>
</mask>
<g mask="url(#mask0_668_18373)">
<path d="M3.15 10.7502C2.9 10.7502 2.6875 10.6627 2.5125 10.4877C2.3375 10.3127 2.25 10.1002 2.25 9.85018V3.15018C2.25 2.90018 2.3375 2.68768 2.5125 2.51268C2.6875 2.33768 2.9 2.25018 3.15 2.25018H3.85V1.18768H4.6125V2.25018H8.4V1.18768H9.15V2.25018H9.85C10.1 2.25018 10.3125 2.33768 10.4875 2.51268C10.6625 2.68768 10.75 2.90018 10.75 3.15018V9.85018C10.75 10.1002 10.6625 10.3127 10.4875 10.4877C10.3125 10.6627 10.1 10.7502 9.85 10.7502H3.15ZM3.15 10.0002H9.85C9.88333 10.0002 9.91667 9.98352 9.95 9.95018C9.98333 9.91685 10 9.88352 10 9.85018V5.15018H3V9.85018C3 9.88352 3.01667 9.91685 3.05 9.95018C3.08333 9.98352 3.11667 10.0002 3.15 10.0002ZM3 4.40018H10V3.15018C10 3.11685 9.98333 3.08352 9.95 3.05018C9.91667 3.01685 9.88333 3.00018 9.85 3.00018H3.15C3.11667 3.00018 3.08333 3.01685 3.05 3.05018C3.01667 3.08352 3 3.11685 3 3.15018V4.40018ZM6.5 7.03768C6.375 7.03768 6.27083 6.99385 6.1875 6.90618C6.10417 6.81885 6.0625 6.71685 6.0625 6.60018C6.0625 6.47518 6.10417 6.36885 6.1875 6.28118C6.27083 6.19385 6.375 6.15018 6.5 6.15018C6.625 6.15018 6.72917 6.19385 6.8125 6.28118C6.89583 6.36885 6.9375 6.47518 6.9375 6.60018C6.9375 6.71685 6.89583 6.81885 6.8125 6.90618C6.72917 6.99385 6.625 7.03768 6.5 7.03768ZM4.5 7.03768C4.375 7.03768 4.27083 6.99385 4.1875 6.90618C4.10417 6.81885 4.0625 6.71685 4.0625 6.60018C4.0625 6.47518 4.10417 6.36885 4.1875 6.28118C4.27083 6.19385 4.375 6.15018 4.5 6.15018C4.625 6.15018 4.72917 6.19385 4.8125 6.28118C4.89583 6.36885 4.9375 6.47518 4.9375 6.60018C4.9375 6.71685 4.89583 6.81885 4.8125 6.90618C4.72917 6.99385 4.625 7.03768 4.5 7.03768ZM8.5 7.03768C8.375 7.03768 8.27083 6.99385 8.1875 6.90618C8.10417 6.81885 8.0625 6.71685 8.0625 6.60018C8.0625 6.47518 8.10417 6.36885 8.1875 6.28118C8.27083 6.19385 8.375 6.15018 8.5 6.15018C8.625 6.15018 8.72917 6.19385 8.8125 6.28118C8.89583 6.36885 8.9375 6.47518 8.9375 6.60018C8.9375 6.71685 8.89583 6.81885 8.8125 6.90618C8.72917 6.99385 8.625 7.03768 8.5 7.03768ZM6.5 9.00018C6.375 9.00018 6.27083 8.95652 6.1875 8.86918C6.10417 8.78152 6.0625 8.67935 6.0625 8.56268C6.0625 8.43768 6.10417 8.33152 6.1875 8.24418C6.27083 8.15652 6.375 8.11268 6.5 8.11268C6.625 8.11268 6.72917 8.15652 6.8125 8.24418C6.89583 8.33152 6.9375 8.43768 6.9375 8.56268C6.9375 8.67935 6.89583 8.78152 6.8125 8.86918C6.72917 8.95652 6.625 9.00018 6.5 9.00018ZM4.5 9.00018C4.375 9.00018 4.27083 8.95652 4.1875 8.86918C4.10417 8.78152 4.0625 8.67935 4.0625 8.56268C4.0625 8.43768 4.10417 8.33152 4.1875 8.24418C4.27083 8.15652 4.375 8.11268 4.5 8.11268C4.625 8.11268 4.72917 8.15652 4.8125 8.24418C4.89583 8.33152 4.9375 8.43768 4.9375 8.56268C4.9375 8.67935 4.89583 8.78152 4.8125 8.86918C4.72917 8.95652 4.625 9.00018 4.5 9.00018ZM8.5 9.00018C8.375 9.00018 8.27083 8.95652 8.1875 8.86918C8.10417 8.78152 8.0625 8.67935 8.0625 8.56268C8.0625 8.43768 8.10417 8.33152 8.1875 8.24418C8.27083 8.15652 8.375 8.11268 8.5 8.11268C8.625 8.11268 8.72917 8.15652 8.8125 8.24418C8.89583 8.33152 8.9375 8.43768 8.9375 8.56268C8.9375 8.67935 8.89583 8.78152 8.8125 8.86918C8.72917 8.95652 8.625 9.00018 8.5 9.00018Z" fill="#828282"/>
</g>
</svg>
