<svg width="20" height="20" viewBox="0 0 20 20" fill="none" xmlns="http://www.w3.org/2000/svg">
<path d="M10.0041 20C9.86892 20 9.73375 19.9974 9.59805 19.9922C4.52176 19.7931 0.313176 15.6672 0.017353 10.5992C-0.12354 8.18633 0.59704 5.83431 2.05068 3.93252L1.5391 3.33567C1.24171 2.98838 1.28175 2.46328 1.62904 2.16538L3.26776 0.761133C3.43621 0.616601 3.64937 0.547455 3.87188 0.563572C4.09284 0.580729 4.29404 0.68263 4.43857 0.851078L4.90596 1.39593C6.44695 0.481429 8.19952 0 9.99994 0C11.8003 0 13.5529 0.481429 15.0939 1.39593L15.5613 0.851078C15.7058 0.68263 15.907 0.580729 16.128 0.563572C16.351 0.547455 16.5637 0.616601 16.7321 0.761133L18.3708 2.16486C18.7181 2.46276 18.7587 2.98786 18.4608 3.33567L17.9492 3.93252C19.2744 5.66794 20.0002 7.80785 20.0002 10.0003C20.0002 12.7458 18.91 15.3058 16.9302 17.2092C15.0497 19.0174 12.6036 20 10.0046 20H10.0041ZM2.28099 2.80382L3.23449 3.91588L2.99066 4.21067C1.5235 5.98456 0.790443 8.23468 0.925096 10.5456C1.19388 15.1519 5.0193 18.902 9.63341 19.0834C12.1372 19.1801 14.5012 18.2828 16.3001 16.5536C18.0994 14.8234 19.0909 12.4958 19.0909 9.99974C19.0909 7.88999 18.3516 5.83431 17.0092 4.21067L16.7654 3.91588L17.7189 2.80382L16.2003 1.50251L15.2722 2.58546L14.9385 2.36918C13.4656 1.41413 11.7582 0.909306 9.99994 0.909306C8.24164 0.909306 6.53429 1.41413 5.06141 2.36918L4.72764 2.58546L3.79962 1.50251L2.28099 2.80382Z" fill="black"/>
<path d="M5.63637 7.09082C4.02989 7.09082 2.72754 8.39317 2.72754 9.99966C2.72754 11.6061 4.02989 12.9085 5.63637 12.9085C7.24286 12.9085 8.54521 11.6061 8.54521 9.99966C8.54521 8.39317 7.24286 7.09082 5.63637 7.09082ZM5.63637 11.0265C5.06916 11.0265 4.60957 10.5669 4.60957 9.99966C4.60957 9.43245 5.06916 8.97286 5.63637 8.97286C6.20358 8.97286 6.66317 9.43245 6.66317 9.99966C6.66317 10.5669 6.20358 11.0265 5.63637 11.0265Z" fill="black"/>
<path d="M14.3634 7.09082C12.7569 7.09082 11.4546 8.39317 11.4546 9.99966C11.4546 11.6061 12.7569 12.9085 14.3634 12.9085C15.9699 12.9085 17.2723 11.6061 17.2723 9.99966C17.2723 8.39317 15.9699 7.09082 14.3634 7.09082ZM14.3634 11.0265C13.7962 11.0265 13.3366 10.5669 13.3366 9.99966C13.3366 9.43245 13.7962 8.97286 14.3634 8.97286C14.9306 8.97286 15.3902 9.43245 15.3902 9.99966C15.3902 10.5669 14.9306 11.0265 14.3634 11.0265Z" fill="black"/>
<path d="M9.99969 7.36315C8.6963 7.36315 7.63623 6.30256 7.63623 4.99969C7.63623 3.69683 8.69682 2.63623 9.99969 2.63623C11.3026 2.63623 12.3632 3.69683 12.3632 4.99969C12.3632 6.30256 11.3026 7.36315 9.99969 7.36315ZM9.99969 2.99964C8.89699 2.99964 7.99964 3.89699 7.99964 4.99969C7.99964 6.1024 8.89699 6.99974 9.99969 6.99974C11.1024 6.99974 11.9997 6.1024 11.9997 4.99969C11.9997 3.89699 11.1024 2.99964 9.99969 2.99964Z" fill="black"/>
<path d="M8.93433 6.06533C8.89949 6.0305 8.89949 5.97487 8.93433 5.94004L10.9391 3.9353C10.9739 3.90047 11.0295 3.90047 11.0644 3.9353C11.0992 3.97014 11.0992 4.02577 11.0644 4.0606L9.05962 6.06533C9.02479 6.10017 8.96916 6.10017 8.93433 6.06533Z" fill="black"/>
<path d="M11.0644 6.06533C11.0295 6.10017 10.9739 6.10017 10.9391 6.06533L8.93433 4.0606C8.89949 4.02577 8.89949 3.97014 8.93433 3.9353C8.96916 3.90047 9.02479 3.90047 9.05962 3.9353L11.0644 5.94004C11.0992 5.97487 11.0992 6.0305 11.0644 6.06533Z" fill="black"/>
<path d="M9.99969 17.3636C8.6963 17.3636 7.63623 16.3031 7.63623 15.0002C7.63623 13.6973 8.69682 12.6367 9.99969 12.6367C11.3026 12.6367 12.3632 13.6973 12.3632 15.0002C12.3632 16.3031 11.3026 17.3636 9.99969 17.3636ZM9.99969 13.0001C8.89699 13.0001 7.99964 13.8975 7.99964 15.0002C7.99964 16.1029 8.89699 17.0002 9.99969 17.0002C11.1024 17.0002 11.9997 16.1029 11.9997 15.0002C11.9997 13.8975 11.1024 13.0001 9.99969 13.0001Z" fill="black"/>
<path d="M8.93433 16.0648C8.89949 16.03 8.89949 15.9744 8.93433 15.9396L10.9391 13.9348C10.9739 13.9 11.0295 13.9 11.0644 13.9348C11.0992 13.9696 11.0992 14.0253 11.0644 14.0601L9.05962 16.0648C9.02479 16.0997 8.96916 16.0997 8.93433 16.0648Z" fill="black"/>
<path d="M11.0644 16.0648C11.0295 16.0997 10.9739 16.0997 10.9391 16.0648L8.93433 14.0601C8.89949 14.0253 8.89949 13.9696 8.93433 13.9348C8.96916 13.9 9.02479 13.9 9.05962 13.9348L11.0644 15.9396C11.0992 15.9744 11.0992 16.03 11.0644 16.0648Z" fill="black"/>
</svg>
