<svg width="45" height="44" viewBox="0 0 45 44" fill="none" xmlns="http://www.w3.org/2000/svg">
<mask id="mask0_668_18348" style="mask-type:alpha" maskUnits="userSpaceOnUse" x="0" y="0" width="45" height="44">
<rect x="0.5" width="44" height="44" fill="#D9D9D9"/>
</mask>
<g mask="url(#mask0_668_18348)">
<path d="M20.8513 34.8337H24.0596V32.542C25.5874 32.267 26.9013 31.6712 28.0013 30.7545C29.1013 29.8378 29.6513 28.4781 29.6513 26.6753C29.6513 25.392 29.2846 24.2156 28.5513 23.1462C27.818 22.0767 26.3513 21.1448 24.1513 20.3503C22.318 19.7392 21.0499 19.2045 20.3471 18.7462C19.6444 18.2878 19.293 17.6614 19.293 16.867C19.293 16.0725 19.5759 15.4462 20.1418 14.9878C20.7065 14.5295 21.5235 14.3003 22.593 14.3003C23.5707 14.3003 24.3346 14.5374 24.8846 15.0117C25.4346 15.4847 25.8319 16.0725 26.0763 16.7753L29.0096 15.5837C28.6735 14.5142 28.0551 13.5823 27.1543 12.7878C26.2523 11.9934 25.2513 11.5503 24.1513 11.4587V9.16699H20.943V11.4587C19.4152 11.7948 18.2235 12.467 17.368 13.4753C16.5124 14.4837 16.0846 15.6142 16.0846 16.867C16.0846 18.3031 16.5051 19.4642 17.346 20.3503C18.1856 21.2364 19.5069 22.0003 21.3096 22.642C23.2346 23.3448 24.5717 23.9712 25.321 24.5212C26.069 25.0712 26.443 25.7892 26.443 26.6753C26.443 27.6837 26.0836 28.4243 25.365 28.8973C24.6475 29.3715 23.7846 29.6087 22.7763 29.6087C21.768 29.6087 20.8745 29.2952 20.096 28.6682C19.3162 28.0424 18.743 27.1031 18.3763 25.8503L15.3513 27.042C15.7791 28.5087 16.444 29.693 17.346 30.595C18.2467 31.4958 19.4152 32.1142 20.8513 32.4503V34.8337ZM22.5013 40.3337C19.9652 40.3337 17.5819 39.8521 15.3513 38.889C13.1207 37.9271 11.1805 36.6212 9.53047 34.9712C7.88047 33.3212 6.57452 31.3809 5.61264 29.1503C4.64952 26.9198 4.16797 24.5364 4.16797 22.0003C4.16797 19.4642 4.64952 17.0809 5.61264 14.8503C6.57452 12.6198 7.88047 10.6795 9.53047 9.02949C11.1805 7.37949 13.1207 6.07294 15.3513 5.10983C17.5819 4.14794 19.9652 3.66699 22.5013 3.66699C25.0374 3.66699 27.4207 4.14794 29.6513 5.10983C31.8819 6.07294 33.8221 7.37949 35.4721 9.02949C37.1221 10.6795 38.4281 12.6198 39.39 14.8503C40.3531 17.0809 40.8346 19.4642 40.8346 22.0003C40.8346 24.5364 40.3531 26.9198 39.39 29.1503C38.4281 31.3809 37.1221 33.3212 35.4721 34.9712C33.8221 36.6212 31.8819 37.9271 29.6513 38.889C27.4207 39.8521 25.0374 40.3337 22.5013 40.3337ZM22.5013 36.667C26.5957 36.667 30.0638 35.2462 32.9055 32.4045C35.7471 29.5628 37.168 26.0948 37.168 22.0003C37.168 17.9059 35.7471 14.4378 32.9055 11.5962C30.0638 8.75449 26.5957 7.33366 22.5013 7.33366C18.4069 7.33366 14.9388 8.75449 12.0971 11.5962C9.25547 14.4378 7.83464 17.9059 7.83464 22.0003C7.83464 26.0948 9.25547 29.5628 12.0971 32.4045C14.9388 35.2462 18.4069 36.667 22.5013 36.667Z" fill="#00FFB3"/>
</g>
</svg>
