<svg width="20" height="24" viewBox="0 0 20 24" fill="none" xmlns="http://www.w3.org/2000/svg">
<path d="M5.5 20C5.5 20.8 4.8 21.5 4 21.5C3.2 21.5 2.5 20.8 2.5 20C2.5 19.2 3.2 18.5 4 18.5C4.8 18.5 5.5 19.2 5.5 20ZM16 18.5C15.2 18.5 14.5 19.2 14.5 20C14.5 20.8 15.2 21.5 16 21.5C16.8 21.5 17.5 20.8 17.5 20C17.5 19.2 16.8 18.5 16 18.5ZM20 20C20 22.2 18.2 24 16 24H4C1.8 24 0 22.2 0 20C0 17.8 1.8 16 4 16H4.3C2.3 14.4 1 11.8 1 9C1 4 5 0 10 0C15 0 19 4 19 9C19 11.8 17.7 14.4 15.7 16H16C18.2 16 20 17.8 20 20ZM10 16C13.9 16 17 12.9 17 9C17 5.1 13.9 2 10 2C6.1 2 3 5.1 3 9C3 12.9 6.1 16 10 16ZM18 20C18 18.9 17.1 18 16 18H4C2.9 18 2 18.9 2 20C2 21.1 2.9 22 4 22H16C17.1 22 18 21.1 18 20ZM10.9 6.3C10.9 5.3 11.7 4.5 12.7 4.5C13.7 4.5 14.5 5.3 14.5 6.3C14.5 7.3 13.7 8.1 12.7 8.1C11.7 8.1 10.9 7.3 10.9 6.3ZM5.5 6.3C5.5 5.3 6.3 4.5 7.3 4.5C8.3 4.5 9.1 5.3 9.1 6.3C9.1 7.3 8.3 8.1 7.3 8.1C6.3 8.1 5.5 7.3 5.5 6.3ZM7.3 10.2C7.3 10.8 6.8 11.3 6.2 11.3C5.6 11.3 5.1 10.8 5.1 10.2C5.1 9.6 5.5 9 6.1 9C6.8 9 7.3 9.6 7.3 10.2ZM11.8 12.7C11.8 13.7 11 14.5 10 14.5C9 14.5 8.2 13.7 8.2 12.7C8.2 11.7 9 10.9 10 10.9C11 10.9 11.8 11.7 11.8 12.7ZM15 10.2C15 10.8 14.5 11.3 13.9 11.3C13.3 11.3 12.8 10.8 12.8 10.2C12.8 9.6 13.2 9 13.9 9C14.5 9 15 9.6 15 10.2Z" fill="#0047C3"/>
</svg>
