<svg width="19" height="16" viewBox="0 0 19 16" fill="none" xmlns="http://www.w3.org/2000/svg">
<path d="M19 2.3V13.7C19 14.2 18.825 14.625 18.475 14.975C18.125 15.325 17.7 15.5 17.2 15.5H1.8C1.3 15.5 0.875 15.325 0.525 14.975C0.175 14.625 0 14.2 0 13.7V2.3C0 1.8 0.175 1.375 0.525 1.025C0.875 0.675 1.3 0.5 1.8 0.5H17.2C17.7 0.5 18.125 0.675 18.475 1.025C18.825 1.375 19 1.8 19 2.3ZM1.5 4.4H17.5V2.3C17.5 2.23333 17.4667 2.16667 17.4 2.1C17.3333 2.03333 17.2667 2 17.2 2H1.8C1.73333 2 1.66667 2.03333 1.6 2.1C1.53333 2.16667 1.5 2.23333 1.5 2.3V4.4ZM1.5 7.6V13.7C1.5 13.7667 1.53333 13.8333 1.6 13.9C1.66667 13.9667 1.73333 14 1.8 14H17.2C17.2667 14 17.3333 13.9667 17.4 13.9C17.4667 13.8333 17.5 13.7667 17.5 13.7V7.6H1.5Z" fill="#4F4F4F"/>
</svg>
