<svg width="19" height="20" viewBox="0 0 19 20" fill="none" xmlns="http://www.w3.org/2000/svg">
<path d="M9.47119 15.0853C7.06288 15.0853 4.70494 14.1413 2.93885 12.4555C1.03319 10.637 -0.0104154 8.20085 7.83741e-05 5.59631C0.00637461 4.08783 0.358968 2.64652 1.04736 1.31224C1.46553 0.50265 2.28981 0 3.19857 0H15.7018C16.609 0 17.4312 0.498455 17.8468 1.30122C18.5456 2.65072 18.8998 4.10935 18.8998 5.63618C18.8998 10.6726 14.9631 14.8182 9.93764 15.0737C9.78233 15.0816 9.62598 15.0858 9.47067 15.0858L9.47119 15.0853ZM1.86272 1.73252C1.24096 2.93667 0.923001 4.23789 0.917229 5.59998C0.907785 7.95005 1.85065 10.149 3.57215 11.7918C5.29574 13.4367 7.5372 14.2767 9.89147 14.1571C14.429 13.9262 17.9832 10.1831 17.9832 5.63566C17.9832 4.25678 17.6631 2.94035 17.033 1.72255C16.7759 1.22567 16.2659 0.917151 15.7024 0.917151H3.19909C2.63505 0.917151 2.12296 1.22987 1.86324 1.73304L1.86272 1.73252Z" fill="black"/>
<path d="M14.257 20H4.6421C2.94212 20 1.55957 18.6175 1.55957 16.9175C1.55957 15.2175 2.94212 13.835 4.6421 13.835H7.04517V14.7526H4.6421C3.44792 14.7526 2.47673 15.7238 2.47673 16.918C2.47673 18.1122 3.44792 19.0834 4.6421 19.0834H14.257C15.4512 19.0834 16.4224 18.1122 16.4224 16.918C16.4224 15.7238 15.4512 14.7526 14.257 14.7526H11.8844V13.835H14.257C15.957 13.835 17.3395 15.218 17.3395 16.9175C17.3395 18.617 15.957 20 14.257 20Z" fill="black"/>
<path d="M5.9637 18.7025C4.97938 18.7025 4.17871 17.9019 4.17871 16.9176C4.17871 15.9332 4.97938 15.1326 5.9637 15.1326C6.94801 15.1326 7.74868 15.9332 7.74868 16.9176C7.74868 17.9019 6.94801 18.7025 5.9637 18.7025ZM5.9637 15.8666C5.38392 15.8666 4.91275 16.3383 4.91275 16.9176C4.91275 17.4968 5.38444 17.9685 5.9637 17.9685C6.54295 17.9685 7.01464 17.4968 7.01464 16.9176C7.01464 16.3383 6.54295 15.8666 5.9637 15.8666Z" fill="black"/>
<path d="M12.9364 18.7028C11.952 18.7028 11.1514 17.9021 11.1514 16.9178C11.1514 15.9335 11.952 15.1328 12.9364 15.1328C13.9207 15.1328 14.7213 15.9335 14.7213 16.9178C14.7213 17.9021 13.9207 18.7028 12.9364 18.7028ZM12.9364 15.8668C12.3566 15.8668 11.8854 16.3385 11.8854 16.9178C11.8854 17.4971 12.3571 17.9687 12.9364 17.9687C13.5156 17.9687 13.9873 17.4971 13.9873 16.9178C13.9873 16.3385 13.5156 15.8668 12.9364 15.8668Z" fill="black"/>
<path d="M7.07935 4.31105C6.37103 4.31105 5.79492 3.73495 5.79492 3.02662C5.79492 2.31829 6.37103 1.74219 7.07935 1.74219C7.78768 1.74219 8.36378 2.31829 8.36378 3.02662C8.36378 3.73495 7.78768 4.31105 7.07935 4.31105ZM7.07935 2.47622C6.77556 2.47622 6.52896 2.72335 6.52896 3.02662C6.52896 3.32989 6.77608 3.57701 7.07935 3.57701C7.38262 3.57701 7.62975 3.32989 7.62975 3.02662C7.62975 2.72335 7.38262 2.47622 7.07935 2.47622Z" fill="black"/>
<path d="M11.5139 4.31081C10.8056 4.31081 10.2295 3.7347 10.2295 3.02637C10.2295 2.31805 10.8056 1.74194 11.5139 1.74194C12.2223 1.74194 12.7984 2.31805 12.7984 3.02637C12.7984 3.7347 12.2223 4.31081 11.5139 4.31081ZM11.5139 2.47598C11.2101 2.47598 10.9635 2.72311 10.9635 3.02637C10.9635 3.32964 11.2107 3.57677 11.5139 3.57677C11.8172 3.57677 12.0643 3.32964 12.0643 3.02637C12.0643 2.72311 11.8172 2.47598 11.5139 2.47598Z" fill="black"/>
<path d="M9.29652 8.59278C8.20884 8.59278 7.32422 7.70816 7.32422 6.62049C7.32422 5.53281 8.20884 4.64819 9.29652 4.64819C10.3842 4.64819 11.2688 5.53281 11.2688 6.62049C11.2688 7.70816 10.3842 8.59278 9.29652 8.59278ZM9.29652 5.3817C8.61338 5.3817 8.05774 5.93735 8.05774 6.62049C8.05774 7.30363 8.61338 7.85927 9.29652 7.85927C9.97966 7.85927 10.5353 7.30363 10.5353 6.62049C10.5353 5.93735 9.97966 5.3817 9.29652 5.3817Z" fill="black"/>
<path d="M4.46497 8.59254C3.3773 8.59254 2.49268 7.70792 2.49268 6.62024C2.49268 5.53257 3.3773 4.64795 4.46497 4.64795C5.55265 4.64795 6.43727 5.53257 6.43727 6.62024C6.43727 7.70792 5.55265 8.59254 4.46497 8.59254ZM4.46497 5.38146C3.78183 5.38146 3.22619 5.9371 3.22619 6.62024C3.22619 7.30339 3.78183 7.85903 4.46497 7.85903C5.14811 7.85903 5.70376 7.30339 5.70376 6.62024C5.70376 5.9371 5.14811 5.38146 4.46497 5.38146Z" fill="black"/>
<path d="M14.1285 8.59278C13.0409 8.59278 12.1562 7.70816 12.1562 6.62049C12.1562 5.53281 13.0409 4.64819 14.1285 4.64819C15.2162 4.64819 16.1008 5.53281 16.1008 6.62049C16.1008 7.70816 15.2162 8.59278 14.1285 8.59278ZM14.1285 5.3817C13.4454 5.3817 12.8898 5.93735 12.8898 6.62049C12.8898 7.30363 13.4454 7.85927 14.1285 7.85927C14.8117 7.85927 15.3673 7.30363 15.3673 6.62049C15.3673 5.93735 14.8117 5.3817 14.1285 5.3817Z" fill="black"/>
<path d="M6.85023 12.5681C5.76256 12.5681 4.87793 11.6835 4.87793 10.5958C4.87793 9.50816 5.76256 8.62354 6.85023 8.62354C7.93791 8.62354 8.82253 9.50816 8.82253 10.5958C8.82253 11.6835 7.93791 12.5681 6.85023 12.5681ZM6.85023 9.35705C6.16709 9.35705 5.61145 9.91269 5.61145 10.5958C5.61145 11.279 6.16709 11.8346 6.85023 11.8346C7.53337 11.8346 8.08901 11.279 8.08901 10.5958C8.08901 9.91269 7.53337 9.35705 6.85023 9.35705Z" fill="black"/>
<path d="M11.7433 12.5684C10.6556 12.5684 9.771 11.6838 9.771 10.5961C9.771 9.50841 10.6556 8.62378 11.7433 8.62378C12.831 8.62378 13.7156 9.50841 13.7156 10.5961C13.7156 11.6838 12.831 12.5684 11.7433 12.5684ZM11.7433 9.3573C11.0602 9.3573 10.5045 9.91294 10.5045 10.5961C10.5045 11.2792 11.0602 11.8349 11.7433 11.8349C12.4264 11.8349 12.9821 11.2792 12.9821 10.5961C12.9821 9.91294 12.4264 9.3573 11.7433 9.3573Z" fill="black"/>
</svg>
