<svg width="13" height="15" viewBox="0 0 13 15" fill="none" xmlns="http://www.w3.org/2000/svg">
<path d="M2.78526 14.2283C2.39044 14.2283 2.05323 14.0884 1.77361 13.8088C1.49398 13.5292 1.35417 13.192 1.35417 12.7972V2.74912H0.5625V1.56164H4.12498V0.861328H8.87498V1.56164H12.4375V2.74912H11.6458V12.7972C11.6458 13.1971 11.5073 13.5356 11.2302 13.8126C10.9531 14.0897 10.6146 14.2283 10.2147 14.2283H2.78526ZM10.4583 2.74912H2.54165V12.7972C2.54165 12.8682 2.56449 12.9266 2.61017 12.9723C2.65584 13.0179 2.71421 13.0408 2.78526 13.0408H10.2147C10.2756 13.0408 10.3314 13.0154 10.3822 12.9647C10.4329 12.9139 10.4583 12.8581 10.4583 12.7972V2.74912ZM4.44471 11.4574H5.63219V4.33245H4.44471V11.4574ZM7.36777 11.4574H8.55525V4.33245H7.36777V11.4574Z" fill="#D60000"/>
</svg>
