<svg width="20" height="20" viewBox="0 0 20 20" fill="none" xmlns="http://www.w3.org/2000/svg">
<mask id="mask0_635_19665" style="mask-type:alpha" maskUnits="userSpaceOnUse" x="0" y="0" width="20" height="20">
<rect width="19.4521" height="19.4521" fill="#D9D9D9"/>
</mask>
<g mask="url(#mask0_635_19665)">
<path d="M5.67371 17.0206C5.22793 17.0206 4.84645 16.862 4.52927 16.5449C4.21155 16.2271 4.05269 15.8454 4.05269 15.3996V4.86304H3.24219V3.24202H7.29472V2.43152H12.1578V3.24202H16.2103V4.86304H15.3998V15.3996C15.3998 15.8454 15.2412 16.2271 14.924 16.5449C14.6063 16.862 14.2245 17.0206 13.7788 17.0206H5.67371ZM13.7788 4.86304H5.67371V15.3996H13.7788V4.86304ZM7.29472 13.7786H8.91573V6.48405H7.29472V13.7786ZM10.5367 13.7786H12.1578V6.48405H10.5367V13.7786Z" fill="#EB5757"/>
</g>
</svg>
