<svg width="20" height="21" viewBox="0 0 20 21" fill="none" xmlns="http://www.w3.org/2000/svg">
<path d="M9.97077 20.4166C7.44299 20.4166 5.24071 19.5856 3.36393 17.9235C1.48793 16.2606 0.413824 14.175 0.141602 11.6666H1.92077C2.21243 13.6889 3.1166 15.3611 4.63327 16.6833C6.14993 18.0055 7.9291 18.6666 9.97077 18.6666C12.2458 18.6666 14.1758 17.8741 15.7609 16.289C17.3453 14.7046 18.1374 12.775 18.1374 10.5C18.1374 8.22498 17.3453 6.29492 15.7609 4.70981C14.1758 3.12548 12.2458 2.33331 9.97077 2.33331C8.70688 2.33331 7.5161 2.61526 6.39843 3.17915C5.27999 3.74304 4.32216 4.52081 3.52493 5.51248H6.55827V7.26248H0.637435V1.34165H2.38743V4.11248C3.34021 2.9847 4.47771 2.11437 5.79993 1.50148C7.12216 0.889369 8.51243 0.583313 9.97077 0.583313C11.3513 0.583313 12.6444 0.845813 13.8499 1.37081C15.0555 1.89581 16.1055 2.60554 16.9999 3.49998C17.8944 4.39442 18.599 5.43976 19.1139 6.63598C19.6296 7.83142 19.8874 9.11942 19.8874 10.5C19.8874 11.8805 19.6296 13.1685 19.1139 14.364C18.599 15.5602 17.8944 16.6055 16.9999 17.5C16.1055 18.3944 15.0555 19.1041 13.8499 19.6291C12.6444 20.1541 11.3513 20.4166 9.97077 20.4166ZM13.4708 15.1958L9.12493 10.85V4.66665H10.8749V10.15L14.6958 13.9708L13.4708 15.1958Z" fill="#828282"/>
</svg>
