<svg width="17" height="16" viewBox="0 0 17 16" fill="none" xmlns="http://www.w3.org/2000/svg">
<path d="M2.125 13.5V14.75C2.125 14.9667 2.05 15.146 1.9 15.288C1.75 15.4293 1.575 15.5 1.375 15.5H0.75C0.533333 15.5 0.354333 15.4293 0.213 15.288C0.0710001 15.146 0 14.9667 0 14.75V7.075L2.05 1.25C2.11667 1.01667 2.25 0.833333 2.45 0.7C2.65 0.566666 2.875 0.5 3.125 0.5H13.925C14.1583 0.5 14.3707 0.571 14.562 0.713C14.754 0.854333 14.8833 1.03333 14.95 1.25L17 7.075V14.75C17 14.9667 16.9293 15.146 16.788 15.288C16.646 15.4293 16.4667 15.5 16.25 15.5H15.625C15.425 15.5 15.25 15.4293 15.1 15.288C14.95 15.146 14.875 14.9667 14.875 14.75V13.5H2.125ZM2.1 5.575H14.9L13.625 2H3.375L2.1 5.575ZM3.975 10.85C4.325 10.85 4.629 10.7207 4.887 10.462C5.14567 10.204 5.275 9.89167 5.275 9.525C5.275 9.175 5.14567 8.871 4.887 8.613C4.629 8.35433 4.31667 8.225 3.95 8.225C3.6 8.225 3.296 8.35433 3.038 8.613C2.77933 8.871 2.65 9.18333 2.65 9.55C2.65 9.9 2.77933 10.204 3.038 10.462C3.296 10.7207 3.60833 10.85 3.975 10.85ZM13.05 10.85C13.4 10.85 13.704 10.7207 13.962 10.462C14.2207 10.204 14.35 9.89167 14.35 9.525C14.35 9.175 14.2207 8.871 13.962 8.613C13.704 8.35433 13.3917 8.225 13.025 8.225C12.675 8.225 12.371 8.35433 12.113 8.613C11.8543 8.871 11.725 9.18333 11.725 9.55C11.725 9.9 11.8543 10.204 12.113 10.462C12.371 10.7207 12.6833 10.85 13.05 10.85ZM1.5 12H15.5V7.075H1.5V12Z" fill="#1C1B1F"/>
</svg>
