<svg width="19" height="18" viewBox="0 0 19 18" fill="none" xmlns="http://www.w3.org/2000/svg">
<path d="M6 11.707H7.75V9.08203H10.8125V11.2695L13.875 8.20703L10.8125 5.14453V7.33203H6.875C6.62708 7.33203 6.41942 7.41574 6.252 7.58316C6.084 7.75116 6 7.95911 6 8.20703V11.707ZM9.5 17.832C9.28125 17.832 9.066 17.7883 8.85425 17.7008C8.64308 17.6133 8.45 17.482 8.275 17.307L1.275 10.307C1.1 10.132 0.96875 9.93895 0.88125 9.72778C0.79375 9.51603 0.75 9.30078 0.75 9.08203C0.75 8.86328 0.79375 8.64803 0.88125 8.43628C0.96875 8.22511 1.1 8.03203 1.275 7.85703L8.275 0.857031C8.45 0.682031 8.64308 0.550781 8.85425 0.463281C9.066 0.375781 9.28125 0.332031 9.5 0.332031C9.71875 0.332031 9.934 0.375781 10.1458 0.463281C10.3569 0.550781 10.55 0.682031 10.725 0.857031L17.725 7.85703C17.9 8.03203 18.0312 8.22511 18.1187 8.43628C18.2063 8.64803 18.25 8.86328 18.25 9.08203C18.25 9.30078 18.2063 9.51603 18.1187 9.72778C18.0312 9.93895 17.9 10.132 17.725 10.307L10.725 17.307C10.55 17.482 10.3569 17.6133 10.1458 17.7008C9.934 17.7883 9.71875 17.832 9.5 17.832Z" fill="white"/>
</svg>
