<svg width="11" height="8" viewBox="0 0 11 8" fill="none" xmlns="http://www.w3.org/2000/svg">
<g clip-path="url(#clip0_1700_18700)">
<path opacity="0.355" d="M10.7327 2.34752L6.12904 6.95122C5.95651 7.12282 5.72306 7.21918 5.47972 7.21918C5.23638 7.21918 5.00293 7.12282 4.8304 6.95122L0.2267 2.34752C0.0747619 2.1715 -0.00497111 1.9445 0.00354832 1.71213C0.0120678 1.47976 0.108175 1.25922 0.272595 1.0948C0.437014 0.930385 0.657581 0.834278 0.88995 0.825758C1.12232 0.817239 1.34926 0.896942 1.52528 1.04888L5.47685 5.0004L9.43791 1.04888C9.52205 0.958686 9.62354 0.886361 9.73623 0.836207C9.84892 0.786053 9.97051 0.759116 10.0938 0.756975C10.2172 0.754833 10.3397 0.777527 10.454 0.823739C10.5684 0.86995 10.6723 0.938714 10.7595 1.02593C10.8467 1.11315 10.9155 1.21706 10.9617 1.33142C11.0079 1.44578 11.0306 1.56828 11.0285 1.69161C11.0263 1.81494 10.9994 1.93657 10.9492 2.04926C10.8991 2.16195 10.8267 2.26338 10.7365 2.34752H10.7327Z" fill="#6D6D6D"/>
</g>
<defs>
<clipPath id="clip0_1700_18700">
<rect width="11" height="6.4404" fill="white" transform="translate(0 0.780273)"/>
</clipPath>
</defs>
</svg>
