<svg width="98" height="47" viewBox="0 0 98 47" fill="none" xmlns="http://www.w3.org/2000/svg">
<path d="M26.0956 26.4897L37.1007 19.0664C38.9672 25.1845 36.7335 32.0368 31.1545 35.7893C24.3209 40.3982 15.0395 38.5933 10.4294 31.7513C5.8193 24.9194 7.63478 15.6403 14.4683 11.0313C19.4354 7.68675 25.6876 7.71733 30.4915 10.6132L37.4679 5.91245C29.8693 -0.450357 18.6909 -1.32729 10.0622 4.48489C-0.381936 11.5411 -3.14594 25.7249 3.9018 36.1665C10.9495 46.6183 25.1267 49.3714 35.5708 42.3356C44.7808 36.1257 48.0242 24.3891 43.8322 14.5288C43.2713 13.2032 42.5778 11.9082 41.7414 10.6642C41.0886 9.69552 40.3849 8.79821 39.6097 7.97226L21.7405 20.0249C19.9556 21.2281 19.4864 23.655 20.6899 25.4394C21.8935 27.2137 24.3107 27.6929 26.0956 26.4897Z" fill="white"/>
<path d="M17.7333 21.1542L23.466 29.6595C23.5374 29.7717 23.6904 29.7921 23.7924 29.7208L28.403 26.6103C28.5153 26.5389 28.5356 26.3859 28.4643 26.2839L22.7315 17.7786C22.6602 17.6664 22.5071 17.646 22.4051 17.7174L17.7944 20.8279C17.6925 20.8992 17.6618 21.042 17.7333 21.1542Z" fill="white"/>
<path d="M15.336 25.587C15.5296 25.8727 15.9271 25.9543 16.2125 25.7605L19.6675 23.4244C19.9529 23.2306 20.0345 22.8327 19.8408 22.5471C19.6472 22.2615 19.2497 22.1799 18.9643 22.3737L15.5093 24.7098C15.2239 24.9036 15.1424 25.2912 15.336 25.587Z" fill="white"/>
<path d="M18.6052 26.7033C18.7988 26.9889 19.196 27.0705 19.4812 26.8767L22.9343 24.5407C23.2195 24.3468 23.301 23.949 23.1075 23.6634C22.9139 23.3777 22.5166 23.2961 22.2314 23.4899L18.7784 25.826C18.483 26.0198 18.4117 26.4074 18.6052 26.7033Z" fill="white"/>
<path d="M18.4499 30.2164C18.6441 30.5021 19.0428 30.5837 19.3291 30.3899L22.795 28.0538C23.0812 27.86 23.163 27.4622 22.9688 27.1765C22.7745 26.8909 22.3758 26.8093 22.0896 27.0031L18.6237 29.3391C18.3272 29.533 18.2556 29.9206 18.4499 30.2164Z" fill="white"/>
<path d="M24.9594 21.7271L22.5172 22.777L23.0077 23.5518L20.7495 24.4692L24.3361 24.0513L23.8251 23.2766L25.7972 23.0319L24.9594 21.7271Z" fill="#0047C3"/>
<path d="M86.6939 0C80.5115 0 75.498 5.01347 75.498 11.1959C75.498 17.3782 80.5115 22.3917 86.6939 22.3917C92.8786 22.3917 97.892 17.3782 97.892 11.1959C97.892 5.01347 92.8786 0 86.6939 0ZM86.6939 18.5224C82.6489 18.5224 79.3696 15.2409 79.3696 11.1981C79.3696 7.1531 82.6512 3.87385 86.6939 3.87385C90.7412 3.87385 94.0182 7.15535 94.0182 11.1981C94.0182 15.2409 90.7389 18.5224 86.6939 18.5224Z" fill="white"/>
<path d="M62.7426 13.342L69.2561 13.3195C68.3484 16.3217 65.5669 18.5109 62.2674 18.5222C58.2224 18.5357 54.9319 15.2699 54.9161 11.2227C54.9026 7.17764 58.1706 3.88713 62.2156 3.87136C65.1525 3.8601 67.693 5.58081 68.8665 8.07404L72.9925 8.06052C71.6322 3.38939 67.3102 -0.0159936 62.2021 0.00202429C56.0197 0.0245466 51.022 5.05379 51.0445 11.2384C51.067 17.4231 56.0963 22.4185 62.2809 22.396C67.7336 22.378 72.2583 18.4704 73.2403 13.3082C73.3754 12.6145 73.443 11.8961 73.4407 11.1618C73.4385 10.5898 73.3935 10.029 73.3079 9.48168L62.7291 9.51772C61.6728 9.52222 60.8192 10.3803 60.8215 11.4366C60.8282 12.4907 61.6863 13.3443 62.7426 13.342Z" fill="#13F2AD"/>
<path d="M97.8124 37.5396C96.9047 42.8121 92.3102 46.8234 86.7764 46.8234C80.594 46.8234 75.5806 41.8099 75.5806 35.6275C75.5806 29.4451 80.594 24.4316 86.7764 24.4316C92.3102 24.4316 96.907 28.4429 97.8124 33.7154H93.8484C93.0061 30.5983 90.1593 28.3032 86.7764 28.3032C82.7314 28.3032 79.4522 31.5847 79.4522 35.6275C79.4522 39.6725 82.7337 42.9518 86.7764 42.9518C90.1593 42.9518 93.0061 40.659 93.8484 37.5396H97.8124Z" fill="#0BF1A7"/>
<path d="M62.738 33.4751H69.2538C68.3348 30.4728 65.5466 28.2949 62.2448 28.2949C58.1998 28.2949 54.916 31.5742 54.916 35.6237C54.916 39.6687 58.1975 42.9525 62.2448 42.9525C65.184 42.9525 67.72 41.2228 68.8844 38.725H73.0127C71.6682 43.4029 67.3551 46.8241 62.2448 46.8241C56.0602 46.8241 51.0444 41.8083 51.0444 35.6237C51.0444 29.4346 56.0602 24.4233 62.2448 24.4233C67.6997 24.4233 72.2402 28.3175 73.2402 33.4773C73.3776 34.171 73.4474 34.8895 73.4474 35.6237C73.4474 36.1958 73.4046 36.7566 73.319 37.3039H62.7358C61.6795 37.3039 60.8214 36.448 60.8214 35.3895C60.8259 34.3309 61.6817 33.4751 62.738 33.4751Z" fill="white"/>
</svg>
