<svg width="15" height="14" viewBox="0 0 15 14" fill="none" xmlns="http://www.w3.org/2000/svg">
<mask id="mask0_635_19425" style="mask-type:alpha" maskUnits="userSpaceOnUse" x="0" y="0" width="15" height="14">
<rect x="0.5" width="14" height="14" fill="#D9D9D9"/>
</mask>
<g mask="url(#mask0_635_19425)">
<path d="M4.92377 11.6235L6.44843 9.08235H5.53363V7.12353L4.00897 9.68235H4.92377V11.6235ZM3.07623 5.76471H7.38117V2.27059C7.38117 2.22353 7.35725 2.17647 7.30942 2.12941C7.26158 2.08235 7.21375 2.05882 7.16592 2.05882H3.29148C3.24365 2.05882 3.19581 2.08235 3.14798 2.12941C3.10015 2.17647 3.07623 2.22353 3.07623 2.27059V5.76471ZM3.07623 11.9412H7.38117V6.82353H3.07623V11.9412ZM2 13V2.27059C2 1.91765 2.12556 1.61765 2.37668 1.37059C2.6278 1.12353 2.93274 1 3.29148 1H7.16592C7.52466 1 7.8296 1.12353 8.08072 1.37059C8.33184 1.61765 8.4574 1.91765 8.4574 2.27059V6.85882H9.26457C9.58744 6.85882 9.86559 6.97341 10.099 7.20259C10.332 7.43224 10.4484 7.70588 10.4484 8.02353V11.2882C10.4484 11.5118 10.5412 11.7118 10.7268 11.8882C10.9119 12.0647 11.1241 12.1529 11.3632 12.1529C11.6143 12.1529 11.8296 12.0647 12.009 11.8882C12.1883 11.7118 12.278 11.5118 12.278 11.2882V4.84706H12.0628C11.8834 4.84706 11.7311 4.78541 11.6057 4.66212C11.4799 4.53835 11.417 4.38824 11.417 4.21176V2.94118H11.7399V2.02353H12.3677V2.94118H13.0314V2.02353H13.6771V2.94118H14V4.21176C14 4.38824 13.9373 4.53835 13.812 4.66212C13.6862 4.78541 13.5336 4.84706 13.3543 4.84706H13.139V11.2882C13.139 11.7471 12.9656 12.1471 12.6188 12.4882C12.272 12.8294 11.8535 13 11.3632 13C10.8849 13 10.4692 12.8294 10.1162 12.4882C9.76371 12.1471 9.58744 11.7471 9.58744 11.2882V8.02353C9.58744 7.92941 9.55755 7.85294 9.49776 7.79412C9.43797 7.73529 9.36024 7.70588 9.26457 7.70588H8.4574V13H2Z" fill="#0047C3"/>
</g>
</svg>
