<svg width="20" height="20" viewBox="0 0 20 20" fill="none" xmlns="http://www.w3.org/2000/svg">
<path d="M7 12.25C6.65 12.25 6.35433 12.129 6.113 11.887C5.871 11.6457 5.75 11.35 5.75 11C5.75 10.65 5.871 10.3543 6.113 10.113C6.35433 9.871 6.65 9.75 7 9.75C7.35 9.75 7.64567 9.871 7.887 10.113C8.129 10.3543 8.25 10.65 8.25 11C8.25 11.35 8.129 11.6457 7.887 11.887C7.64567 12.129 7.35 12.25 7 12.25ZM13 12.25C12.65 12.25 12.3543 12.129 12.113 11.887C11.871 11.6457 11.75 11.35 11.75 11C11.75 10.65 11.871 10.3543 12.113 10.113C12.3543 9.871 12.65 9.75 13 9.75C13.35 9.75 13.6457 9.871 13.887 10.113C14.129 10.3543 14.25 10.65 14.25 11C14.25 11.35 14.129 11.6457 13.887 11.887C13.6457 12.129 13.35 12.25 13 12.25ZM10 18C12.2333 18 14.125 17.225 15.675 15.675C17.225 14.125 18 12.2333 18 10C18 9.6 17.975 9.21233 17.925 8.837C17.875 8.46233 17.7833 8.1 17.65 7.75C17.3 7.83333 16.95 7.896 16.6 7.938C16.25 7.97933 15.8833 8 15.5 8C13.9833 8 12.55 7.675 11.2 7.025C9.85 6.375 8.7 5.46667 7.75 4.3C7.21667 5.6 6.45433 6.72933 5.463 7.688C4.471 8.646 3.31667 9.36667 2 9.85V10C2 12.2333 2.775 14.125 4.325 15.675C5.875 17.225 7.76667 18 10 18ZM10 19.5C8.68333 19.5 7.446 19.25 6.288 18.75C5.12933 18.25 4.125 17.575 3.275 16.725C2.425 15.875 1.75 14.8707 1.25 13.712C0.75 12.554 0.5 11.3167 0.5 10C0.5 8.68333 0.75 7.44567 1.25 6.287C1.75 5.129 2.425 4.125 3.275 3.275C4.125 2.425 5.12933 1.75 6.288 1.25C7.446 0.75 8.68333 0.5 10 0.5C11.3167 0.5 12.5543 0.75 13.713 1.25C14.871 1.75 15.875 2.425 16.725 3.275C17.575 4.125 18.25 5.129 18.75 6.287C19.25 7.44567 19.5 8.68333 19.5 10C19.5 11.3167 19.25 12.554 18.75 13.712C18.25 14.8707 17.575 15.875 16.725 16.725C15.875 17.575 14.871 18.25 13.713 18.75C12.5543 19.25 11.3167 19.5 10 19.5ZM8.175 2.225C8.94167 3.625 9.996 4.68733 11.338 5.412C12.6793 6.13733 14.0667 6.5 15.5 6.5C15.7667 6.5 16.0293 6.48733 16.288 6.462C16.546 6.43733 16.8083 6.39167 17.075 6.325C16.4083 5.00833 15.4417 3.95833 14.175 3.175C12.9083 2.39167 11.5167 2 10 2C9.66667 2 9.354 2.02067 9.062 2.062C8.77067 2.104 8.475 2.15833 8.175 2.225ZM2.275 8.1C3.225 7.61667 4.121 6.925 4.963 6.025C5.80433 5.125 6.35 4.04167 6.6 2.775C5.5 3.275 4.575 3.98733 3.825 4.912C3.075 5.83733 2.55833 6.9 2.275 8.1Z" fill="#828282"/>
</svg>
