<svg width="18" height="19" viewBox="0 0 18 19" fill="none" xmlns="http://www.w3.org/2000/svg">
<mask id="mask0_2108_8080" style="mask-type:alpha" maskUnits="userSpaceOnUse" x="0" y="0" width="18" height="19">
<rect y="0.5" width="18" height="18" fill="#D9D9D9"/>
</mask>
<g mask="url(#mask0_2108_8080)">
<path d="M8.99969 15.7436L8.17469 14.9936C6.92469 13.8686 5.89345 12.8998 5.08095 12.0873C4.26845 11.2748 3.62469 10.5528 3.14969 9.92131C2.67469 9.29031 2.34344 8.7153 2.15594 8.1963C1.96844 7.6778 1.87469 7.1498 1.87469 6.6123C1.87469 5.5498 2.23419 4.65905 2.95319 3.94005C3.67169 3.22155 4.56219 2.8623 5.62469 2.8623C6.27469 2.8623 6.89345 3.0153 7.48095 3.3213C8.06845 3.6278 8.57469 4.06855 8.99969 4.64355C9.4247 4.06855 9.93094 3.6278 10.5184 3.3213C11.1059 3.0153 11.7247 2.8623 12.3747 2.8623C13.4372 2.8623 14.3277 3.22155 15.0462 3.94005C15.7652 4.65905 16.1247 5.5498 16.1247 6.6123C16.1247 7.1498 16.0309 7.6778 15.8434 8.1963C15.6559 8.7153 15.3247 9.29031 14.8497 9.92131C14.3747 10.5528 13.7309 11.2748 12.9184 12.0873C12.1059 12.8998 11.0747 13.8686 9.8247 14.9936L8.99969 15.7436Z" fill="#AF2727"/>
</g>
</svg>
