<svg width="16" height="14" viewBox="0 0 16 14" fill="none" xmlns="http://www.w3.org/2000/svg">
<path d="M7.99951 13.2438L7.17451 12.4938C5.92451 11.3688 4.89326 10.4 4.08076 9.58755C3.26826 8.77505 2.62451 8.05305 2.14951 7.42155C1.67451 6.79055 1.34326 6.21555 1.15576 5.69655C0.968262 5.17805 0.874512 4.65005 0.874512 4.11255C0.874512 3.05005 1.23401 2.1593 1.95301 1.4403C2.67151 0.721799 3.56201 0.362549 4.62451 0.362549C5.27451 0.362549 5.89326 0.515549 6.48076 0.821549C7.06826 1.12805 7.57451 1.5688 7.99951 2.1438C8.42451 1.5688 8.93076 1.12805 9.51826 0.821549C10.1058 0.515549 10.7245 0.362549 11.3745 0.362549C12.437 0.362549 13.3275 0.721799 14.046 1.4403C14.765 2.1593 15.1245 3.05005 15.1245 4.11255C15.1245 4.65005 15.0308 5.17805 14.8433 5.69655C14.6558 6.21555 14.3245 6.79055 13.8495 7.42155C13.3745 8.05305 12.7308 8.77505 11.9183 9.58755C11.1058 10.4 10.0745 11.3688 8.82451 12.4938L7.99951 13.2438ZM7.99951 11.725C9.19951 10.65 10.187 9.72505 10.962 8.95005C11.737 8.17505 12.3495 7.50305 12.7995 6.93405C13.2495 6.36555 13.562 5.86255 13.737 5.42505C13.912 4.98755 13.9995 4.55005 13.9995 4.11255C13.9995 3.36255 13.7495 2.73755 13.2495 2.23755C12.7495 1.73755 12.1245 1.48755 11.3745 1.48755C10.787 1.48755 10.24 1.6563 9.73351 1.9938C9.22751 2.3313 8.83076 2.80005 8.54326 3.40005H7.45576C7.15576 2.78755 6.75576 2.31555 6.25576 1.98405C5.75576 1.65305 5.21201 1.48755 4.62451 1.48755C3.87451 1.48755 3.24951 1.73755 2.74951 2.23755C2.24951 2.73755 1.99951 3.36255 1.99951 4.11255C1.99951 4.55005 2.08701 4.98755 2.26201 5.42505C2.43701 5.86255 2.74951 6.36555 3.19951 6.93405C3.64951 7.50305 4.26201 8.1718 5.03701 8.9403C5.81201 9.7093 6.79951 10.6375 7.99951 11.725Z" fill="#828282"/>
</svg>
