<svg width="17" height="17" viewBox="0 0 17 17" fill="none" xmlns="http://www.w3.org/2000/svg">
<path d="M7.37516 16.8081C7.07752 16.8081 6.82803 16.7074 6.62668 16.5061C6.42533 16.3047 6.32466 16.0552 6.32466 15.7576V9.45455L0.231729 1.68081C-0.0308972 1.33064 -0.0702911 0.962963 0.113547 0.577778C0.297386 0.192593 0.616914 0 1.07213 0H15.7792C16.2344 0 16.554 0.192593 16.7378 0.577778C16.9216 0.962963 16.8822 1.33064 16.6196 1.68081L10.5267 9.45455V15.7576C10.5267 16.0552 10.426 16.3047 10.2247 16.5061C10.0233 16.7074 9.77382 16.8081 9.47617 16.8081H7.37516ZM8.42567 8.71919L13.6257 2.10101H3.22567L8.42567 8.71919Z" fill="white"/>
</svg>
