<svg width="182" height="204" viewBox="0 0 182 204" fill="none" xmlns="http://www.w3.org/2000/svg">
<path d="M67.6654 91.1016L132.048 48.6494C142.967 83.6373 129.9 122.824 97.2611 144.284C57.2833 170.641 2.98486 160.319 -23.9856 121.191C-50.9557 82.1212 -40.3347 29.0561 -0.356812 2.69818C28.7018 -16.4284 65.2787 -16.2535 93.3827 0.307487L134.196 -26.5752C89.7428 -62.9626 24.3462 -67.9776 -26.1337 -34.739C-87.2344 5.61392 -103.405 86.728 -62.1735 146.441C-20.9425 206.212 61.997 221.957 123.098 181.721C176.979 146.208 195.953 79.0888 171.429 22.6999C168.148 15.1191 164.09 7.71311 159.197 0.598995C155.378 -4.94065 151.261 -10.0722 146.727 -14.7956L42.187 54.1308C31.7449 61.0117 29.0004 74.8904 36.0412 85.0952C43.082 95.2417 57.2236 97.9825 67.6654 91.1016Z" fill="#262626"/>
</svg>
