<svg width="182" height="204" viewBox="0 0 182 204" fill="none" xmlns="http://www.w3.org/2000/svg">
<g opacity="0.3">
<path d="M67.6654 91.1016L132.048 48.6494C142.967 83.6373 129.9 122.824 97.2611 144.284C57.2833 170.641 2.98485 160.319 -23.9856 121.191C-50.9557 82.1212 -40.3347 29.0561 -0.356811 2.69818C28.7018 -16.4284 65.2787 -16.2535 93.3827 0.307487L134.196 -26.5752C89.7428 -62.9626 24.3462 -67.9776 -26.1337 -34.739C-87.2344 5.61392 -103.405 86.728 -62.1735 146.441C-20.9425 206.212 61.997 221.957 123.098 181.721C176.979 146.208 195.953 79.0888 171.429 22.6999C168.148 15.1191 164.09 7.71311 159.197 0.598995C155.378 -4.94065 151.261 -10.0722 146.727 -14.7956L42.187 54.1308C31.7449 61.0117 29.0004 74.8904 36.0412 85.0952C43.082 95.2417 57.2236 97.9825 67.6654 91.1016Z" fill="#262626"/>
<path d="M18.7394 60.5816L52.2774 109.222C52.6949 109.863 53.59 109.98 54.1868 109.572L81.1602 91.7838C81.8167 91.3753 81.936 90.5006 81.5185 89.9172L47.9805 41.2776C47.563 40.6358 46.6676 40.5192 46.0711 40.9274L19.0973 58.7154C18.5008 59.1236 18.3215 59.9402 18.7394 60.5816Z" fill="#262626"/>
<path d="M4.72107 85.939C5.85377 87.5724 8.1791 88.0391 9.84852 86.9309L30.0614 73.5713C31.7309 72.4631 32.208 70.1877 31.0749 68.5543C29.9422 66.9208 27.6169 66.4542 25.9471 67.5627L5.73457 80.922C4.06515 82.0305 3.58802 84.2472 4.72107 85.939Z" fill="#262626"/>
<path d="M23.8436 92.3321C24.976 93.9656 27.3 94.4322 28.9685 93.324L49.1699 79.9647C50.8384 78.8561 51.3149 76.5811 50.1829 74.9476C49.0505 73.3142 46.7264 72.8472 45.058 73.9558L24.8568 87.3151C23.1284 88.4236 22.7115 90.6403 23.8436 92.3321Z" fill="#262626"/>
<path d="M22.9301 112.406C24.0663 114.04 26.3989 114.506 28.0736 113.398L48.3499 100.039C50.0246 98.9301 50.5032 96.6551 49.3666 95.0216C48.2303 93.3881 45.8977 92.9212 44.223 94.0297L23.9467 107.389C22.2123 108.498 21.7935 110.714 22.9301 112.406Z" fill="#262626"/>
<path d="M61.0193 63.86L46.7321 69.8647L49.6016 74.2954L36.3906 79.542L57.3728 77.152L54.3838 72.7213L65.921 71.3221L61.0193 63.86Z" fill="#333333"/>
</g>
</svg>
