<svg width="85" height="87" viewBox="0 0 85 87" fill="none" xmlns="http://www.w3.org/2000/svg">
<path d="M54.8909 54.4741L78.0398 38.8596C81.9658 51.7287 77.2674 66.1421 65.5321 74.0353C51.158 83.7301 31.635 79.9336 21.9378 65.5416C12.2406 51.171 16.0594 31.6528 30.4335 21.958C40.8815 14.9229 54.0328 14.9872 64.1376 21.0786L78.8121 11.1907C62.8289 -2.19315 39.3155 -4.03774 21.1654 8.18794C-0.803386 23.0304 -6.61736 52.8655 8.20727 74.8289C23.0319 96.8138 52.8529 102.605 74.8216 87.8053C94.1946 74.7431 101.017 50.0557 92.1993 29.3149C91.0193 26.5266 89.5605 23.8025 87.8012 21.1858C86.4282 19.1483 84.9479 17.2608 83.3174 15.5235L45.7302 40.8757C41.9757 43.4066 40.9889 48.5114 43.5204 52.2649C46.052 55.9969 51.1366 57.0051 54.8909 54.4741Z" fill="#262626"/>
<path d="M37.2996 43.2479L49.3582 61.1384C49.5084 61.3745 49.8302 61.4174 50.0448 61.2672L59.7431 54.7245C59.9791 54.5743 60.022 54.2526 59.8719 54.038L47.8133 36.1475C47.6632 35.9115 47.3412 35.8686 47.1268 36.0187L37.4283 42.5614C37.2139 42.7116 37.1494 43.0119 37.2996 43.2479Z" fill="#262626"/>
<path d="M32.2592 52.5747C32.6664 53.1755 33.5025 53.3471 34.1027 52.9395L41.3703 48.0257C41.9705 47.6181 42.1421 46.7811 41.7347 46.1803C41.3274 45.5795 40.4914 45.4079 39.891 45.8156L32.6236 50.7294C32.0233 51.1371 31.8518 51.9524 32.2592 52.5747Z" fill="#262626"/>
<path d="M39.1347 54.9263C39.5418 55.5271 40.3774 55.6988 40.9773 55.2912L48.2408 50.3774C48.8407 49.9697 49.012 49.1329 48.605 48.532C48.1978 47.9312 47.3622 47.7595 46.7623 48.1672L39.499 53.081C38.8776 53.4887 38.7277 54.3041 39.1347 54.9263Z" fill="#262626"/>
<path d="M38.8065 62.3104C39.215 62.9112 40.0537 63.0829 40.6558 62.6753L47.9462 57.7615C48.5483 57.3538 48.7204 56.517 48.3118 55.9161C47.9032 55.3153 47.0645 55.1436 46.4624 55.5513L39.172 60.4651C38.5484 60.8728 38.3978 61.6882 38.8065 62.3104Z" fill="#262626"/>
<path d="M52.5018 44.4543L47.3648 46.663L48.3965 48.2926L43.6465 50.2224L51.1906 49.3433L50.1159 47.7137L54.2642 47.199L52.5018 44.4543Z" fill="#333333"/>
</svg>
