<svg width="26" height="20" viewBox="0 0 26 20" fill="none" xmlns="http://www.w3.org/2000/svg">
<path d="M12.5852 20C9.38564 20 6.25255 18.7453 3.9053 16.5058C1.37292 14.0892 -0.01422 10.8523 0.000109926 7.39081C0.00813469 5.38691 0.476435 3.47128 1.39183 1.69781C1.93236 0.650579 2.99908 0 4.1747 0H20.9402C22.1141 0 23.1779 0.644846 23.715 1.68291C24.6436 3.47587 25.1147 5.41385 25.1147 7.44354C25.1147 14.1362 19.8837 19.6446 13.2054 19.9845C12.9985 19.9948 12.7916 20 12.5852 20ZM2.28258 2.15751C1.44056 3.78883 1.01008 5.55084 1.00263 7.39482C0.989448 10.5778 2.26596 13.5561 4.59715 15.7807C6.93121 18.0081 9.97087 19.1448 13.155 18.9837C19.2997 18.6713 24.1128 13.6025 24.1128 7.44354C24.1128 5.57606 23.6795 3.79342 22.8254 2.14376C22.4608 1.43987 21.7386 1.00195 20.9402 1.00195H4.1747C3.37567 1.00195 2.65057 1.44503 2.28258 2.15751Z" fill="black"/>
<path d="M9.2029 16.8116C7.68049 16.8116 6.44238 15.5729 6.44238 14.051C6.44238 12.5292 7.68106 11.2905 9.2029 11.2905C10.7247 11.2905 11.9634 12.5292 11.9634 14.051C11.9634 15.5729 10.7247 16.8116 9.2029 16.8116ZM9.2029 12.0919C8.123 12.0919 7.24371 12.9706 7.24371 14.051C7.24371 15.1315 8.12243 16.0102 9.2029 16.0102C10.2834 16.0102 11.1615 15.1315 11.1615 14.051C11.1615 12.9706 10.2828 12.0919 9.2029 12.0919Z" fill="black"/>
<path d="M15.9114 16.8118C14.389 16.8118 13.1509 15.5731 13.1509 14.0513C13.1509 12.5295 14.3896 11.2908 15.9114 11.2908C17.4332 11.2908 18.6719 12.5295 18.6719 14.0513C18.6719 15.5731 17.4332 16.8118 15.9114 16.8118ZM15.9114 12.0921C14.8315 12.0921 13.9528 12.9708 13.9528 14.0513C13.9528 15.1318 14.8315 16.0105 15.9114 16.0105C16.9913 16.0105 17.8706 15.1318 17.8706 14.0513C17.8706 12.9708 16.9919 12.0921 15.9114 12.0921Z" fill="black"/>
<path d="M12.5569 11.3724C11.0345 11.3724 9.79639 10.1337 9.79639 8.61184C9.79639 7.09 11.0351 5.85132 12.5569 5.85132C14.0787 5.85132 15.3174 7.09 15.3174 8.61184C15.3174 10.1337 14.0787 11.3724 12.5569 11.3724ZM12.5569 6.65265C11.4764 6.65265 10.5977 7.53136 10.5977 8.61184C10.5977 9.69231 11.4764 10.571 12.5569 10.571C13.6374 10.571 14.5161 9.69231 14.5161 8.61184C14.5161 7.53136 13.6374 6.65265 12.5569 6.65265Z" fill="black"/>
<path d="M5.19362 11.3724C3.67121 11.3724 2.43311 10.1337 2.43311 8.61184C2.43311 7.09 3.67178 5.85132 5.19362 5.85132C6.71546 5.85132 7.95414 7.09 7.95414 8.61184C7.95414 10.1337 6.71546 11.3724 5.19362 11.3724ZM5.19362 6.65265C4.11372 6.65265 3.23443 7.53136 3.23443 8.61184C3.23443 9.69231 4.11315 10.571 5.19362 10.571C6.2741 10.571 7.15224 9.69231 7.15224 8.61184C7.15224 7.53136 6.27353 6.65265 5.19362 6.65265Z" fill="black"/>
<path d="M19.9202 11.3724C18.3978 11.3724 17.1597 10.1337 17.1597 8.61184C17.1597 7.09 18.3983 5.85132 19.9202 5.85132C21.442 5.85132 22.6807 7.09 22.6807 8.61184C22.6807 10.1337 21.442 11.3724 19.9202 11.3724ZM19.9202 6.65265C18.8397 6.65265 17.961 7.53136 17.961 8.61184C17.961 9.69231 18.8397 10.571 19.9202 10.571C21.0007 10.571 21.8794 9.69231 21.8794 8.61184C21.8794 7.53136 21.0007 6.65265 19.9202 6.65265Z" fill="black"/>
<path d="M16.0019 5.8351C14.941 5.8351 14.0771 4.97187 14.0771 3.91088C14.0771 2.84989 14.9404 1.98608 16.0019 1.98608C17.0635 1.98608 17.9267 2.84932 17.9267 3.91088C17.9267 4.97244 17.0635 5.8351 16.0019 5.8351ZM16.0019 2.78799C15.3829 2.78799 14.8791 3.29183 14.8791 3.91088C14.8791 4.52993 15.3829 5.03377 16.0019 5.03377C16.621 5.03377 17.1248 4.52993 17.1248 3.91088C17.1248 3.29183 16.621 2.78799 16.0019 2.78799Z" fill="black"/>
<path d="M9.11221 5.83535C8.05122 5.83535 7.18799 4.97211 7.18799 3.91112C7.18799 2.85014 8.05122 1.98633 9.11221 1.98633C10.1732 1.98633 11.037 2.84956 11.037 3.91112C11.037 4.97269 10.1738 5.83535 9.11221 5.83535ZM9.11221 2.78823C8.49316 2.78823 7.98932 3.29207 7.98932 3.91112C7.98932 4.53018 8.49316 5.03402 9.11221 5.03402C9.73127 5.03402 10.2351 4.53018 10.2351 3.91112C10.2351 3.29207 9.73127 2.78823 9.11221 2.78823Z" fill="black"/>
</svg>
