<svg width="68" height="33" viewBox="0 0 68 33" fill="none" xmlns="http://www.w3.org/2000/svg">
<path d="M18.1273 18.875L25.772 13.7184C27.0685 17.9683 25.5169 22.7282 21.6415 25.3349C16.8945 28.5365 10.4472 27.2827 7.24477 22.5299C4.04237 17.7841 5.3035 11.3384 10.0504 8.13675C13.5008 5.81348 17.8439 5.83473 21.1809 7.84636L26.0271 4.58097C20.7487 0.161044 12.9836 -0.448116 6.9897 3.58932C-0.265312 8.49092 -2.18533 18.3437 2.71039 25.597C7.6061 32.8573 17.4542 34.7697 24.7093 29.8823C31.107 25.5686 33.36 17.4158 30.4481 10.5663C30.0584 9.6455 29.5766 8.74591 28.9957 7.88177C28.5422 7.20888 28.0534 6.58556 27.5149 6.01181L15.102 14.3842C13.8621 15.22 13.5363 16.9058 14.3723 18.1454C15.2083 19.3779 16.8874 19.7108 18.1273 18.875Z" fill="white"/>
<path d="M12.3181 15.1676L16.3003 21.0758C16.3499 21.1538 16.4562 21.1679 16.527 21.1184L19.7298 18.9577C19.8078 18.9081 19.8219 18.8018 19.7724 18.7309L15.7901 12.8228C15.7405 12.7448 15.6342 12.7307 15.5634 12.7802L12.3606 14.9409C12.2897 14.9905 12.2684 15.0897 12.3181 15.1676Z" fill="white"/>
<path d="M10.6534 18.2477C10.7879 18.4461 11.064 18.5028 11.2622 18.3682L13.6623 16.7454C13.8605 16.6108 13.9172 16.3344 13.7826 16.136C13.6481 15.9376 13.372 15.8809 13.1738 16.0156L10.7737 17.6383C10.5755 17.7729 10.5189 18.0422 10.6534 18.2477Z" fill="white"/>
<path d="M12.9228 19.0243C13.0572 19.2227 13.3332 19.2794 13.5313 19.1448L15.93 17.522C16.1281 17.3874 16.1847 17.111 16.0503 16.9126C15.9158 16.7142 15.6399 16.6575 15.4417 16.7921L13.0431 18.4149C12.8379 18.5495 12.7884 18.8188 12.9228 19.0243Z" fill="white"/>
<path d="M12.8156 21.4629C12.9506 21.6613 13.2275 21.718 13.4264 21.5834L15.834 19.9607C16.0328 19.826 16.0896 19.5497 15.9547 19.3512C15.8198 19.1528 15.5428 19.0961 15.344 19.2308L12.9364 20.8535C12.7304 20.9881 12.6807 21.2574 12.8156 21.4629Z" fill="white"/>
<path d="M17.3384 15.5661L15.642 16.2955L15.9827 16.8337L14.4141 17.471L16.9055 17.1807L16.5505 16.6425L17.9205 16.4725L17.3384 15.5661Z" fill="#0245B8"/>
<path d="M60.2206 0.473907C55.926 0.473907 52.4434 3.95652 52.4434 8.25111C52.4434 12.5457 55.926 16.0283 60.2206 16.0283C64.5167 16.0283 67.9993 12.5457 67.9993 8.25111C67.9993 3.95652 64.5167 0.473907 60.2206 0.473907ZM60.2206 13.3405C57.4107 13.3405 55.1328 11.061 55.1328 8.25268C55.1328 5.44281 57.4123 3.16488 60.2206 3.16488C63.032 3.16488 65.3084 5.44437 65.3084 8.25268C65.3084 11.061 63.0304 13.3405 60.2206 13.3405Z" fill="white"/>
<path d="M43.5832 9.74186L48.1078 9.72621C47.4773 11.8117 45.5451 13.3324 43.2531 13.3402C40.4432 13.3496 38.1574 11.0811 38.1465 8.26965C38.1371 5.45978 40.4072 3.17403 43.2171 3.16307C45.2572 3.15525 47.022 4.35054 47.8371 6.08246L50.7033 6.07307C49.7583 2.82827 46.756 0.462723 43.2077 0.475239C38.9131 0.490884 35.4414 3.98444 35.4571 8.2806C35.4727 12.5768 38.9663 16.0469 43.2625 16.0312C47.0501 16.0187 50.1933 13.3043 50.8754 9.71839C50.9693 9.23652 51.0162 8.73744 51.0146 8.22741C51.0131 7.83002 50.9818 7.44046 50.9223 7.06028L43.5738 7.08532C42.84 7.08844 42.2471 7.68452 42.2487 8.41828C42.2533 9.15047 42.8494 9.74342 43.5832 9.74186Z" fill="#13F2AD"/>
<path d="M67.9433 26.5511C67.3128 30.2136 64.1212 33 60.2772 33C55.9826 33 52.5 29.5174 52.5 25.2228C52.5 20.9282 55.9826 17.4456 60.2772 17.4456C64.1212 17.4456 67.3144 20.232 67.9433 23.8946H65.1898C64.6047 21.7293 62.6271 20.135 60.2772 20.135C57.4673 20.135 55.1894 22.4145 55.1894 25.2228C55.1894 28.0327 57.4689 30.3106 60.2772 30.3106C62.6271 30.3106 64.6047 28.7179 65.1898 26.5511H67.9433Z" fill="#0BF1A7"/>
<path d="M43.58 23.7271H48.1061C47.4678 21.6416 45.5309 20.1287 43.2374 20.1287C40.4275 20.1287 38.1464 22.4067 38.1464 25.2197C38.1464 28.0295 40.4259 30.3106 43.2374 30.3106C45.2791 30.3106 47.0407 29.1091 47.8496 27.374H50.7173C49.7833 30.6235 46.7872 33 43.2374 33C38.9412 33 35.457 29.5158 35.457 25.2197C35.457 20.9204 38.9412 17.4393 43.2374 17.4393C47.0266 17.4393 50.1807 20.1444 50.8753 23.7287C50.9708 24.2106 51.0193 24.7096 51.0193 25.2197C51.0193 25.6171 50.9895 26.0066 50.9301 26.3868H43.5784C42.8447 26.3868 42.2486 25.7923 42.2486 25.057C42.2517 24.3216 42.8462 23.7271 43.58 23.7271Z" fill="white"/>
</svg>
