<svg width="28" height="27" viewBox="0 0 28 27" fill="none" xmlns="http://www.w3.org/2000/svg">
<path d="M25.0312 11.2967H24.125V11.25H14V15.75H20.3579C19.4304 18.3696 16.9379 20.25 14 20.25C10.2723 20.25 7.25 17.2277 7.25 13.5C7.25 9.77231 10.2723 6.75 14 6.75C15.7207 6.75 17.2861 7.39912 18.4781 8.45944L21.6601 5.27737C19.6509 3.40481 16.9633 2.25 14 2.25C7.78719 2.25 2.75 7.28719 2.75 13.5C2.75 19.7128 7.78719 24.75 14 24.75C20.2128 24.75 25.25 19.7128 25.25 13.5C25.25 12.7457 25.1724 12.0094 25.0312 11.2967Z" fill="#FBC02D"/>
<path d="M4.04712 8.26369L7.74331 10.9744C8.74343 8.49825 11.1656 6.75 14 6.75C15.7207 6.75 17.2861 7.39912 18.4781 8.45944L21.6601 5.27737C19.6509 3.40481 16.9632 2.25 14 2.25C9.67887 2.25 5.93149 4.68956 4.04712 8.26369Z" fill="#E53935"/>
<path d="M14 24.75C16.9059 24.75 19.5462 23.6379 21.5426 21.8295L18.0607 18.8831C16.9312 19.7387 15.5272 20.25 14 20.25C11.0739 20.25 8.5893 18.3842 7.65331 15.7804L3.98468 18.6069C5.84656 22.2503 9.62768 24.75 14 24.75Z" fill="#4CAF50"/>
<path d="M25.0312 11.2967L25.0222 11.25H24.125H14V15.75H20.3579C19.9124 17.0083 19.103 18.0934 18.059 18.8837C18.0596 18.8831 18.0601 18.8831 18.0607 18.8826L21.5426 21.8289C21.2962 22.0528 25.25 19.125 25.25 13.5C25.25 12.7457 25.1724 12.0094 25.0312 11.2967Z" fill="#1565C0"/>
</svg>
