<?xml version="1.0" encoding="UTF-8"?>
<!DOCTYPE svg PUBLIC "-//W3C//DTD SVG 1.1//EN" "http://www.w3.org/Graphics/SVG/1.1/DTD/svg11.dtd">
<svg xmlns="http://www.w3.org/2000/svg" version="1.1" width="42px" height="42px" style="shape-rendering:geometricPrecision; text-rendering:geometricPrecision; image-rendering:optimizeQuality; fill-rule:evenodd; clip-rule:evenodd" xmlns:xlink="http://www.w3.org/1999/xlink">
<g><path style="opacity:0.907" fill="#a0a0a0" d="M 13.5,-0.5 C 17.8333,-0.5 22.1667,-0.5 26.5,-0.5C 33.4137,2.07924 38.4137,6.74591 41.5,13.5C 41.5,17.8333 41.5,22.1667 41.5,26.5C 38.9208,33.4137 34.2541,38.4137 27.5,41.5C 23.1667,41.5 18.8333,41.5 14.5,41.5C 7.58628,38.9208 2.58628,34.2541 -0.5,27.5C -0.5,23.1667 -0.5,18.8333 -0.5,14.5C 2.07924,7.58628 6.74591,2.58628 13.5,-0.5 Z"/></g>
<g><path style="opacity:1" fill="#fafafa" d="M 15.5,5.5 C 20.5692,4.90929 25.2358,5.90929 29.5,8.5C 28.7303,10.2718 27.3969,11.2718 25.5,11.5C 15.6569,9.51293 10.8235,13.5129 11,23.5C 17.3333,32.8333 23.6667,32.8333 30,23.5C 30.4935,21.8659 30.6602,20.1992 30.5,18.5C 26.6688,19.2492 23.6688,21.2492 21.5,24.5C 19.457,23.4206 18.1237,21.754 17.5,19.5C 21.9249,16.9275 26.2583,14.0942 30.5,11C 31.4491,10.3828 32.2825,10.5494 33,11.5C 37.0703,19.5423 35.9036,26.7089 29.5,33C 13.1162,38.6141 5.28285,32.7808 6,15.5C 8.02229,10.98 11.189,7.6467 15.5,5.5 Z"/></g>
<g><path style="opacity:1" fill="#88ffda" d="M 20.5,19.5 C 22.9752,19.7467 22.9752,20.4134 20.5,21.5C 19.537,21.0302 19.537,20.3635 20.5,19.5 Z"/></g>
</svg>
