<?xml version="1.0" encoding="UTF-8"?>
<!DOCTYPE svg PUBLIC "-//W3C//DTD SVG 1.1//EN" "http://www.w3.org/Graphics/SVG/1.1/DTD/svg11.dtd">
<svg xmlns="http://www.w3.org/2000/svg" version="1.1" width="55px" height="54px" style="shape-rendering:geometricPrecision; text-rendering:geometricPrecision; image-rendering:optimizeQuality; fill-rule:evenodd; clip-rule:evenodd" xmlns:xlink="http://www.w3.org/1999/xlink">
<g><path style="opacity:0.913" fill="#bdbdbd" d="M 21.5,1.5 C 30.1831,0.0717557 37.8498,2.07176 44.5,7.5C 42.1312,9.68225 39.4645,11.3489 36.5,12.5C 25.8702,8.31959 18.0369,11.3196 13,21.5C 11.0219,33.5177 16.0219,40.5177 28,42.5C 39.4911,40.6781 44.4911,34.0114 43,22.5C 38.7561,24.8674 35.2561,28.0341 32.5,32C 30.7017,33.5053 28.8684,33.6719 27,32.5C 25.7592,34.4206 24.2592,34.754 22.5,33.5C 23.09,32.2011 24.09,31.3678 25.5,31C 24.5,30.6667 23.5,30.3333 22.5,30C 23.6956,29.3457 23.6956,28.8457 22.5,28.5C 21.3914,29.5896 20.3914,29.5896 19.5,28.5C 21.2377,25.7678 23.2377,23.2678 25.5,21C 27.0548,19.3542 28.7215,19.0209 30.5,20C 35.4036,16.0936 40.5703,12.5936 46,9.5C 50.8856,13.9478 53.3856,19.6144 53.5,26.5C 51.1119,45.3807 40.4452,53.5474 21.5,51C 9.53107,47.2384 3.19773,39.0718 2.5,26.5C 3.31091,13.8442 9.64424,5.51085 21.5,1.5 Z"/></g>
<g><path style="opacity:1" fill="#ececec" d="M 29.5,24.5 C 32.0337,25.8376 31.7004,26.8376 28.5,27.5C 28.1667,27.1667 27.8333,26.8333 27.5,26.5C 28.2427,25.8182 28.9094,25.1515 29.5,24.5 Z"/></g>
</svg>
