<svg width="26" height="25" viewBox="0 0 26 25" fill="none" xmlns="http://www.w3.org/2000/svg">
<path d="M15.0367 14.1786L21.039 10.1298C22.057 13.4667 20.8388 17.204 17.7959 19.2507C14.0687 21.7645 9.00651 20.7801 6.49207 17.0483C3.97765 13.3221 4.96785 8.26114 8.69497 5.7473C11.4041 3.92315 14.8142 3.93983 17.4343 5.51929L21.2393 2.95542C17.0949 -0.514963 10.998 -0.993255 6.2918 2.1768C0.595397 6.02538 -0.912138 13.7615 2.93182 19.4565C6.77577 25.157 14.5082 26.6586 20.2046 22.8212C25.2279 19.4342 26.9969 13.0329 24.7105 7.65493C24.4046 6.93192 24.0263 6.22559 23.5701 5.5471C23.2141 5.01876 22.8303 4.52935 22.4075 4.07887L12.6613 10.6526C11.6878 11.3088 11.4319 12.6325 12.0883 13.6057C12.7448 14.5734 14.0632 14.8348 15.0367 14.1786Z" fill="#0047C3"/>
<path d="M10.4734 11.268L13.6001 15.907C13.639 15.9682 13.7225 15.9793 13.7781 15.9404L16.2929 14.2439C16.3541 14.2049 16.3652 14.1215 16.3262 14.0659L13.1995 9.42695C13.1606 9.36575 13.0771 9.35463 13.0215 9.39356L10.5067 11.0901C10.4511 11.129 10.4344 11.2069 10.4734 11.268Z" fill="#0047C3"/>
<path d="M9.16695 13.6864C9.27255 13.8422 9.48934 13.8867 9.64498 13.781L11.5294 12.5069C11.6851 12.4012 11.7295 12.1842 11.6239 12.0284C11.5183 11.8726 11.3015 11.8281 11.1458 11.9338L9.26144 13.208C9.1058 13.3137 9.06132 13.5251 9.16695 13.6864Z" fill="#0047C3"/>
<path d="M10.9506 14.2958C11.0562 14.4516 11.2728 14.4961 11.4284 14.3904L13.3118 13.1163C13.4673 13.0106 13.5117 12.7936 13.4062 12.6378C13.3006 12.482 13.0839 12.4375 12.9284 12.5432L11.045 13.8173C10.8839 13.9231 10.845 14.1345 10.9506 14.2958Z" fill="#0047C3"/>
<path d="M10.8639 16.2109C10.9698 16.3666 11.1873 16.4111 11.3434 16.3055L13.2338 15.0313C13.3899 14.9256 13.4345 14.7086 13.3286 14.5529C13.2226 14.3971 13.0052 14.3525 12.849 14.4583L10.9587 15.7324C10.797 15.8381 10.7579 16.0495 10.8639 16.2109Z" fill="#0047C3"/>
<path d="M14.4172 11.5806L13.0852 12.1533L13.3527 12.5758L12.1211 13.0762L14.0773 12.8483L13.7986 12.4257L14.8742 12.2923L14.4172 11.5806Z" fill="white"/>
</svg>
