<svg width="22" height="20" viewBox="0 0 22 20" fill="none" xmlns="http://www.w3.org/2000/svg">
<path d="M11.2999 17.975C11.3832 17.975 11.4792 17.95 11.5879 17.9C11.6959 17.85 11.7749 17.8 11.8249 17.75L19.8249 9.75C20.0582 9.51667 20.2289 9.275 20.3369 9.025C20.4456 8.775 20.4999 8.50833 20.4999 8.225C20.4999 7.925 20.4456 7.64167 20.3369 7.375C20.2289 7.10833 20.0582 6.86667 19.8249 6.65L15.8249 2.65C15.6082 2.41667 15.3749 2.25 15.1249 2.15C14.8749 2.05 14.6082 2 14.3249 2C14.0416 2 13.7666 2.05 13.4999 2.15C13.2332 2.25 12.9916 2.41667 12.7749 2.65L12.1999 3.225L14.0499 5.075C14.2832 5.29167 14.4539 5.53733 14.5619 5.812C14.6706 6.08733 14.7249 6.375 14.7249 6.675C14.7249 7.275 14.5209 7.77933 14.1129 8.188C13.7042 8.596 13.1916 8.8 12.5749 8.8C12.2749 8.8 11.9876 8.754 11.7129 8.662C11.4376 8.57067 11.1916 8.41667 10.9749 8.2L9.09991 6.325L4.74991 10.65C4.66657 10.7333 4.60824 10.8207 4.57491 10.912C4.54157 11.004 4.52491 11.1 4.52491 11.2C4.52491 11.3833 4.58757 11.5417 4.71291 11.675C4.83757 11.8083 4.99157 11.875 5.17491 11.875C5.27491 11.875 5.37491 11.85 5.47491 11.8C5.57491 11.75 5.65824 11.7 5.72491 11.65L8.99991 8.35L10.0499 9.425L6.77491 12.7C6.70824 12.7667 6.65424 12.85 6.61291 12.95C6.57091 13.05 6.54991 13.15 6.54991 13.25C6.54991 13.4167 6.61657 13.5667 6.74991 13.7C6.88324 13.8333 7.03324 13.9 7.19991 13.9C7.29991 13.9 7.40424 13.875 7.51291 13.825C7.62091 13.775 7.69991 13.725 7.74991 13.675L11.1499 10.275L12.1999 11.325L8.82491 14.725C8.75824 14.7917 8.70391 14.875 8.66191 14.975C8.62057 15.075 8.59991 15.175 8.59991 15.275C8.59991 15.4583 8.66224 15.6127 8.78691 15.738C8.91224 15.8627 9.06657 15.925 9.24991 15.925C9.34991 15.925 9.44591 15.9083 9.53791 15.875C9.62924 15.8417 9.71657 15.7833 9.79991 15.7L13.1999 12.325L14.2499 13.375L10.8499 16.775C10.7666 16.8583 10.7082 16.95 10.6749 17.05C10.6416 17.15 10.6249 17.2417 10.6249 17.325C10.6249 17.5083 10.6916 17.6627 10.8249 17.788C10.9582 17.9127 11.1166 17.975 11.2999 17.975ZM11.2749 19.475C10.7082 19.475 10.2166 19.2793 9.79991 18.888C9.38324 18.496 9.15824 18.0083 9.12491 17.425C8.55824 17.375 8.08757 17.1707 7.71291 16.812C7.33757 16.454 7.13324 15.975 7.09991 15.375C6.49991 15.3417 6.01657 15.1373 5.64991 14.762C5.28324 14.3873 5.09157 13.9167 5.07491 13.35C4.47491 13.3 3.98324 13.0793 3.59991 12.688C3.21657 12.296 3.02491 11.8 3.02491 11.2C3.02491 10.9 3.07924 10.6083 3.18791 10.325C3.29591 10.0417 3.45824 9.8 3.67491 9.6L9.09991 4.2L12.0249 7.125C12.0749 7.19167 12.1499 7.24567 12.2499 7.287C12.3499 7.329 12.4582 7.35 12.5749 7.35C12.7416 7.35 12.8916 7.28733 13.0249 7.162C13.1582 7.03733 13.2249 6.88333 13.2249 6.7C13.2249 6.58333 13.2042 6.479 13.1629 6.387C13.1209 6.29567 13.0666 6.21667 12.9999 6.15L9.49991 2.65C9.28324 2.41667 9.04591 2.25 8.78791 2.15C8.52924 2.05 8.25824 2 7.97491 2C7.69157 2 7.42491 2.05 7.17491 2.15C6.92491 2.25 6.68324 2.41667 6.44991 2.65L3.17491 5.95C2.99157 6.13333 2.84157 6.34567 2.72491 6.587C2.60824 6.829 2.54157 7.08333 2.52491 7.35C2.49157 7.56667 2.49591 7.779 2.53791 7.987C2.57924 8.19567 2.64991 8.39167 2.74991 8.575L1.64991 9.675C1.41657 9.34167 1.24591 8.975 1.13791 8.575C1.02924 8.175 0.98324 7.76667 0.999906 7.35C1.01657 6.88333 1.12057 6.43733 1.31191 6.012C1.50391 5.58733 1.76657 5.20833 2.09991 4.875L5.37491 1.6C5.74157 1.23333 6.14591 0.958333 6.58791 0.775C7.02924 0.591667 7.49157 0.5 7.97491 0.5C8.45824 0.5 8.92091 0.591667 9.36291 0.775C9.80424 0.958333 10.2082 1.23333 10.5749 1.6L11.1499 2.15L11.7249 1.6C12.0916 1.23333 12.4916 0.958333 12.9249 0.775C13.3582 0.591667 13.8249 0.5 14.3249 0.5C14.8082 0.5 15.2666 0.591667 15.6999 0.775C16.1332 0.958333 16.5332 1.23333 16.8999 1.6L20.8749 5.575C21.2416 5.925 21.5206 6.33333 21.7119 6.8C21.9039 7.26667 21.9999 7.74167 21.9999 8.225C21.9999 8.70833 21.9039 9.17067 21.7119 9.612C21.5206 10.054 21.2416 10.4583 20.8749 10.825L12.8749 18.8C12.6582 19.0167 12.4126 19.1833 12.1379 19.3C11.8626 19.4167 11.5749 19.475 11.2749 19.475Z" fill="#4F4F4F"/>
</svg>
