<svg width="16" height="11" viewBox="0 0 16 11" fill="none" xmlns="http://www.w3.org/2000/svg">
<path d="M0.666504 10.6665V0.666504H1.99984V7.33317H7.33317V1.99984H12.6665C13.3998 1.99984 14.0276 2.26095 14.5498 2.78317C15.0721 3.30539 15.3332 3.93317 15.3332 4.6665V10.6665H13.9998V8.6665H1.99984V10.6665H0.666504ZM4.6665 6.6665C4.11095 6.6665 3.63873 6.47206 3.24984 6.08317C2.86095 5.69428 2.6665 5.22206 2.6665 4.6665C2.6665 4.11095 2.86095 3.63873 3.24984 3.24984C3.63873 2.86095 4.11095 2.6665 4.6665 2.6665C5.22206 2.6665 5.69428 2.86095 6.08317 3.24984C6.47206 3.63873 6.6665 4.11095 6.6665 4.6665C6.6665 5.22206 6.47206 5.69428 6.08317 6.08317C5.69428 6.47206 5.22206 6.6665 4.6665 6.6665ZM8.6665 7.33317H13.9998V4.6665C13.9998 4.29984 13.8694 3.98584 13.6085 3.7245C13.3472 3.46361 13.0332 3.33317 12.6665 3.33317H8.6665V7.33317ZM4.6665 5.33317C4.85539 5.33317 5.01384 5.26917 5.14184 5.14117C5.26939 5.01362 5.33317 4.85539 5.33317 4.6665C5.33317 4.47762 5.26939 4.31917 5.14184 4.19117C5.01384 4.06361 4.85539 3.99984 4.6665 3.99984C4.47761 3.99984 4.31917 4.06361 4.19117 4.19117C4.06361 4.31917 3.99984 4.47762 3.99984 4.6665C3.99984 4.85539 4.06361 5.01362 4.19117 5.14117C4.31917 5.26917 4.47761 5.33317 4.6665 5.33317Z" fill="#4F4F4F"/>
</svg>
