<svg width="16" height="11" viewBox="0 0 16 11" fill="none" xmlns="http://www.w3.org/2000/svg">
<path d="M0.666504 10.1667V0.166748H1.99984V6.83342H7.33317V1.50008H12.6665C13.3998 1.50008 14.0276 1.76119 14.5498 2.28341C15.0721 2.80564 15.3332 3.43341 15.3332 4.16675V10.1667H13.9998V8.16675H1.99984V10.1667H0.666504ZM4.6665 6.16675C4.11095 6.16675 3.63873 5.9723 3.24984 5.58342C2.86095 5.19453 2.6665 4.7223 2.6665 4.16675C2.6665 3.61119 2.86095 3.13897 3.24984 2.75008C3.63873 2.36119 4.11095 2.16675 4.6665 2.16675C5.22206 2.16675 5.69428 2.36119 6.08317 2.75008C6.47206 3.13897 6.6665 3.61119 6.6665 4.16675C6.6665 4.7223 6.47206 5.19453 6.08317 5.58342C5.69428 5.9723 5.22206 6.16675 4.6665 6.16675ZM8.6665 6.83342H13.9998V4.16675C13.9998 3.80008 13.8694 3.48608 13.6085 3.22475C13.3472 2.96386 13.0332 2.83341 12.6665 2.83341H8.6665V6.83342ZM4.6665 4.83342C4.85539 4.83342 5.01384 4.76941 5.14184 4.64141C5.26939 4.51386 5.33317 4.35564 5.33317 4.16675C5.33317 3.97786 5.26939 3.81941 5.14184 3.69141C5.01384 3.56386 4.85539 3.50008 4.6665 3.50008C4.47761 3.50008 4.31917 3.56386 4.19117 3.69141C4.06361 3.81941 3.99984 3.97786 3.99984 4.16675C3.99984 4.35564 4.06361 4.51386 4.19117 4.64141C4.31917 4.76941 4.47761 4.83342 4.6665 4.83342Z" fill="#828282"/>
</svg>
