<svg width="19" height="20" viewBox="0 0 19 20" fill="none" xmlns="http://www.w3.org/2000/svg">
<path d="M9.42619 18.8524C4.22865 18.8524 0 14.6237 0 9.42619C0 4.22865 4.22865 0 9.42619 0C14.6237 0 18.8524 4.22865 18.8524 9.42619C18.8524 14.6237 14.6237 18.8524 9.42619 18.8524ZM9.42619 0.953081C4.75397 0.953081 0.953081 4.75396 0.953081 9.42619C0.953081 14.0984 4.75397 17.8993 9.42619 17.8993C14.0984 17.8993 17.8993 14.0979 17.8993 9.42619C17.8993 4.75451 14.0984 0.953081 9.42619 0.953081Z" fill="black"/>
<path d="M11.9677 19.9998H6.88459C6.50478 19.9998 6.1958 19.6908 6.1958 19.311V17.9443H7.14888V19.0467H11.7034V17.9443H12.6565V19.311C12.6565 19.6908 12.3475 19.9998 11.9677 19.9998Z" fill="black"/>
<path d="M9.4261 16.2497C8.03871 16.2497 6.91016 15.1211 6.91016 13.7337C6.91016 12.3463 8.03871 11.2178 9.4261 11.2178C10.8135 11.2178 11.942 12.3463 11.942 13.7337C11.942 15.1211 10.8135 16.2497 9.4261 16.2497ZM9.4261 11.9801C8.45885 11.9801 7.67251 12.767 7.67251 13.7337C7.67251 14.7004 8.45939 15.4873 9.4261 15.4873C10.3928 15.4873 11.1797 14.7004 11.1797 13.7337C11.1797 12.767 10.3928 11.9801 9.4261 11.9801Z" fill="black"/>
<path d="M5.02354 8.2463C4.07754 8.2463 3.30811 7.47686 3.30811 6.53087C3.30811 5.58487 4.07754 4.81543 5.02354 4.81543C5.96954 4.81543 6.73898 5.58487 6.73898 6.53087C6.73898 7.47686 5.96954 8.2463 5.02354 8.2463ZM5.02354 5.57779C4.49823 5.57779 4.07046 6.00501 4.07046 6.53087C4.07046 7.05672 4.49769 7.48395 5.02354 7.48395C5.5494 7.48395 5.97662 7.05672 5.97662 6.53087C5.97662 6.00501 5.5494 5.57779 5.02354 5.57779Z" fill="black"/>
<path d="M13.8287 8.2463C12.8827 8.2463 12.1133 7.47686 12.1133 6.53087C12.1133 5.58487 12.8827 4.81543 13.8287 4.81543C14.7747 4.81543 15.5442 5.58487 15.5442 6.53087C15.5442 7.47686 14.7747 8.2463 13.8287 8.2463ZM13.8287 5.57779C13.3034 5.57779 12.8756 6.00501 12.8756 6.53087C12.8756 7.05672 13.3029 7.48395 13.8287 7.48395C14.3546 7.48395 14.7818 7.05672 14.7818 6.53087C14.7818 6.00501 14.3546 5.57779 13.8287 5.57779Z" fill="black"/>
</svg>
