<svg width="19" height="20" viewBox="0 0 19 20" fill="none" xmlns="http://www.w3.org/2000/svg">
<path d="M8.75 14.75H10.25V9H8.75V14.75ZM9.5 7.3C9.73333 7.3 9.925 7.22067 10.075 7.062C10.225 6.904 10.3 6.70833 10.3 6.475C10.3 6.25833 10.225 6.07067 10.075 5.912C9.925 5.754 9.73333 5.675 9.5 5.675C9.26667 5.675 9.075 5.754 8.925 5.912C8.775 6.07067 8.7 6.25833 8.7 6.475C8.7 6.70833 8.775 6.904 8.925 7.062C9.075 7.22067 9.26667 7.3 9.5 7.3ZM9.5 19.5C8.18333 19.5 6.946 19.25 5.788 18.75C4.62933 18.25 3.625 17.575 2.775 16.725C1.925 15.875 1.25 14.8707 0.75 13.712C0.25 12.554 0 11.3167 0 10C0 8.68333 0.25 7.44567 0.75 6.287C1.25 5.129 1.925 4.125 2.775 3.275C3.625 2.425 4.62933 1.75 5.788 1.25C6.946 0.75 8.18333 0.5 9.5 0.5C10.8167 0.5 12.0543 0.75 13.213 1.25C14.371 1.75 15.375 2.425 16.225 3.275C17.075 4.125 17.75 5.129 18.25 6.287C18.75 7.44567 19 8.68333 19 10C19 11.3167 18.75 12.554 18.25 13.712C17.75 14.8707 17.075 15.875 16.225 16.725C15.375 17.575 14.371 18.25 13.213 18.75C12.0543 19.25 10.8167 19.5 9.5 19.5ZM9.5 18C11.7333 18 13.625 17.225 15.175 15.675C16.725 14.125 17.5 12.2333 17.5 10C17.5 7.76667 16.725 5.875 15.175 4.325C13.625 2.775 11.7333 2 9.5 2C7.26667 2 5.375 2.775 3.825 4.325C2.275 5.875 1.5 7.76667 1.5 10C1.5 12.2333 2.275 14.125 3.825 15.675C5.375 17.225 7.26667 18 9.5 18Z" fill="#4F4F4F"/>
</svg>
