<svg width="48" height="48" viewBox="0 0 48 48" fill="none" xmlns="http://www.w3.org/2000/svg">
<path d="M12 16V26.64C12 28.39 11.33 32 6 32C0.66 32 0 28.64 0 26.72V25H3.72V26.69C3.72 27.81 4.46 28.85 5.88 28.85C7.28 28.85 8.15 28.06 8.15 26.72V16H12Z" fill="#F2F2F2"/>
<path d="M18.156 29.532C17.003 29.532 16.351 28.632 16.351 27H23C23 21.887 20.273 21 18 21C13.909 21 13 24.1 13 26.759C13 29.413 14.818 31.999 18 31.999C20.961 31.999 22.957 30.05 22.957 28.583H19.692C19.692 28.584 19.312 29.532 18.156 29.532ZM17.965 23.221C19.193 23.221 19.734 24.175 19.734 25.167H16.351C16.351 24.1 16.77 23.221 17.965 23.221Z" fill="#F2F2F2"/>
<path d="M29.156 29.532C28.003 29.532 27.351 28.632 27.351 27H34C34 21.887 31.273 21 29 21C24.909 21 24 24.1 24 26.759C24 29.413 25.818 31.999 29 31.999C31.961 31.999 33.957 30.05 33.957 28.583H30.692C30.692 28.584 30.312 29.532 29.156 29.532ZM28.965 23.221C30.193 23.221 30.734 24.175 30.734 25.167H27.351C27.351 24.1 27.77 23.221 28.965 23.221Z" fill="#F2F2F2"/>
<path d="M42.386 21C40 21 39.126 22.518 39 22.789V21H35V36H39V31C39.147 31.196 40.012 32.419 42.428 32.419C45.325 32.419 47 29.926 47 26.521C47 22.113 44.189 21 42.386 21ZM41.296 29.88C39.533 29.88 38.959 28.765 39 26.645C39.046 24.524 39.998 23.656 41.127 23.656C42.973 23.656 43.314 25.065 43.314 26.521C43.314 27.975 43.055 29.88 41.296 29.88Z" fill="#F2F2F2"/>
</svg>
