<svg width="18" height="10" viewBox="0 0 18 10" fill="none" xmlns="http://www.w3.org/2000/svg">
<path d="M1.075 9.82505C0.841666 9.82505 0.645667 9.74572 0.487 9.58705C0.329 9.42905 0.25 9.23338 0.25 9.00005C0.25 8.76672 0.329 8.57071 0.487 8.41205C0.645667 8.25405 0.841666 8.17505 1.075 8.17505C1.30833 8.17505 1.504 8.25405 1.662 8.41205C1.82067 8.57071 1.9 8.76672 1.9 9.00005C1.9 9.23338 1.82067 9.42905 1.662 9.58705C1.504 9.74572 1.30833 9.82505 1.075 9.82505ZM1.075 5.82505C0.841666 5.82505 0.645667 5.74572 0.487 5.58705C0.329 5.42905 0.25 5.23338 0.25 5.00005C0.25 4.76672 0.329 4.57071 0.487 4.41205C0.645667 4.25405 0.841666 4.17505 1.075 4.17505C1.30833 4.17505 1.504 4.25405 1.662 4.41205C1.82067 4.57071 1.9 4.76672 1.9 5.00005C1.9 5.23338 1.82067 5.42905 1.662 5.58705C1.504 5.74572 1.30833 5.82505 1.075 5.82505ZM1.075 1.82505C0.841666 1.82505 0.645667 1.74572 0.487 1.58705C0.329 1.42905 0.25 1.23338 0.25 1.00005C0.25 0.766715 0.329 0.570715 0.487 0.412049C0.645667 0.254049 0.841666 0.175049 1.075 0.175049C1.30833 0.175049 1.504 0.254049 1.662 0.412049C1.82067 0.570715 1.9 0.766715 1.9 1.00005C1.9 1.23338 1.82067 1.42905 1.662 1.58705C1.504 1.74572 1.30833 1.82505 1.075 1.82505ZM4.125 9.75005V8.25005H17.75V9.75005H4.125ZM4.125 5.75005V4.25005H17.75V5.75005H4.125ZM4.125 1.75005V0.250049H17.75V1.75005H4.125Z" fill="#828282"/>
</svg>
