<svg width="10" height="13" viewBox="0 0 10 13" fill="none" xmlns="http://www.w3.org/2000/svg">
<path d="M5.00065 6.49984C5.32148 6.49984 5.59623 6.3855 5.8249 6.15684C6.05318 5.92856 6.16732 5.654 6.16732 5.33317C6.16732 5.01234 6.05318 4.73759 5.8249 4.50892C5.59623 4.28064 5.32148 4.1665 5.00065 4.1665C4.67982 4.1665 4.40526 4.28064 4.17698 4.50892C3.94832 4.73759 3.83398 5.01234 3.83398 5.33317C3.83398 5.654 3.94832 5.92856 4.17698 6.15684C4.40526 6.3855 4.67982 6.49984 5.00065 6.49984ZM5.00065 10.7873C6.18676 9.69845 7.06662 8.70912 7.64023 7.81934C8.21385 6.92995 8.50065 6.14011 8.50065 5.44984C8.50065 4.39011 8.16271 3.52231 7.48682 2.84642C6.81132 2.17092 5.9826 1.83317 5.00065 1.83317C4.01871 1.83317 3.18979 2.17092 2.5139 2.84642C1.8384 3.52231 1.50065 4.39011 1.50065 5.44984C1.50065 6.14011 1.78746 6.92995 2.36107 7.81934C2.93468 8.70912 3.81454 9.69845 5.00065 10.7873ZM5.00065 12.3332C3.43537 11.0012 2.26637 9.76398 1.49365 8.62142C0.72054 7.47925 0.333984 6.42206 0.333984 5.44984C0.333984 3.9915 0.803179 2.8297 1.74157 1.96442C2.67957 1.09914 3.76593 0.666504 5.00065 0.666504C6.23537 0.666504 7.32173 1.09914 8.25973 1.96442C9.19812 2.8297 9.66732 3.9915 9.66732 5.44984C9.66732 6.42206 9.28096 7.47925 8.50823 8.62142C7.73512 9.76398 6.56593 11.0012 5.00065 12.3332Z" fill="#828282"/>
</svg>
