<svg width="22" height="22" viewBox="0 0 22 22" fill="none" xmlns="http://www.w3.org/2000/svg">
<path d="M10.2498 21.25V19.525C8.16647 19.3083 6.41214 18.4873 4.9868 17.062C3.56214 15.6373 2.74147 13.8833 2.5248 11.8H0.799805V10.3H2.5248C2.74147 8.21664 3.56214 6.46231 4.9868 5.03698C6.41214 3.61231 8.16647 2.79164 10.2498 2.57498V0.849976H11.7498V2.57498C13.8331 2.79164 15.5875 3.61231 17.0128 5.03698C18.4375 6.46231 19.2581 8.21664 19.4748 10.3H21.1998V11.8H19.4748C19.2581 13.8833 18.4375 15.6373 17.0128 17.062C15.5875 18.4873 13.8331 19.3083 11.7498 19.525V21.25H10.2498ZM10.9998 18.05C12.9331 18.05 14.5831 17.3666 15.9498 16C17.3165 14.6333 17.9998 12.9833 17.9998 11.05C17.9998 9.11664 17.3165 7.46664 15.9498 6.09998C14.5831 4.73331 12.9331 4.04998 10.9998 4.04998C9.06647 4.04998 7.41647 4.73331 6.0498 6.09998C4.68314 7.46664 3.9998 9.11664 3.9998 11.05C3.9998 12.9833 4.68314 14.6333 6.0498 16C7.41647 17.3666 9.06647 18.05 10.9998 18.05Z" fill="#828282"/>
</svg>
