<svg width="17" height="21" viewBox="0 0 17 21" fill="none" xmlns="http://www.w3.org/2000/svg">
<path d="M8.5 10.5168C9.05 10.5168 9.52083 10.321 9.9125 9.92935C10.3042 9.53768 10.5 9.06685 10.5 8.51685C10.5 7.96685 10.3042 7.49601 9.9125 7.10435C9.52083 6.71268 9.05 6.51685 8.5 6.51685C7.95 6.51685 7.47917 6.71268 7.0875 7.10435C6.69583 7.49601 6.5 7.96685 6.5 8.51685C6.5 9.06685 6.69583 9.53768 7.0875 9.92935C7.47917 10.321 7.95 10.5168 8.5 10.5168ZM8.5 20.5168C5.81667 18.2335 3.8125 16.1127 2.4875 14.1543C1.1625 12.196 0.5 10.3835 0.5 8.71685C0.5 6.21685 1.30417 4.22518 2.9125 2.74185C4.52083 1.25851 6.38333 0.516846 8.5 0.516846C10.6167 0.516846 12.4792 1.25851 14.0875 2.74185C15.6958 4.22518 16.5 6.21685 16.5 8.71685C16.5 10.3835 15.8375 12.196 14.5125 14.1543C13.1875 16.1127 11.1833 18.2335 8.5 20.5168Z" fill="#2F80ED"/>
</svg>
