<svg width="11" height="12" viewBox="0 0 11 12" fill="none" xmlns="http://www.w3.org/2000/svg">
<mask id="mask0_635_19642" style="mask-type:alpha" maskUnits="userSpaceOnUse" x="0" y="0" width="11" height="12">
<rect y="0.5" width="11" height="11" fill="#D9D9D9"/>
</mask>
<g mask="url(#mask0_635_19642)">
<path d="M5.50065 5.99996C5.75273 5.99996 5.96861 5.91013 6.14828 5.73046C6.32764 5.5511 6.41732 5.33538 6.41732 5.08329C6.41732 4.83121 6.32764 4.61533 6.14828 4.43567C5.96861 4.25631 5.75273 4.16663 5.50065 4.16663C5.24857 4.16663 5.03285 4.25631 4.85348 4.43567C4.67382 4.61533 4.58398 4.83121 4.58398 5.08329C4.58398 5.33538 4.67382 5.5511 4.85348 5.73046C5.03285 5.91013 5.24857 5.99996 5.50065 5.99996ZM5.50065 9.36871C6.4326 8.51315 7.12391 7.73582 7.57461 7.03671C8.0253 6.3379 8.25065 5.71732 8.25065 5.17496C8.25065 4.34232 7.98512 3.66047 7.45407 3.12942C6.92332 2.59867 6.27218 2.33329 5.50065 2.33329C4.72912 2.33329 4.07783 2.59867 3.54678 3.12942C3.01603 3.66047 2.75065 4.34232 2.75065 5.17496C2.75065 5.71732 2.976 6.3379 3.42669 7.03671C3.87739 7.73582 4.56871 8.51315 5.50065 9.36871ZM5.50065 10.5833C4.27079 9.53677 3.35229 8.56464 2.74515 7.66692C2.13771 6.7695 1.83398 5.93885 1.83398 5.17496C1.83398 4.02913 2.20264 3.11628 2.93994 2.43642C3.67694 1.75656 4.53051 1.41663 5.50065 1.41663C6.47079 1.41663 7.32436 1.75656 8.06136 2.43642C8.79867 3.11628 9.16732 4.02913 9.16732 5.17496C9.16732 5.93885 8.86375 6.7695 8.25661 7.66692C7.64917 8.56464 6.73051 9.53677 5.50065 10.5833Z" fill="#EB5757"/>
</g>
</svg>
