<svg width="14" height="17" viewBox="0 0 14 17" fill="none" xmlns="http://www.w3.org/2000/svg">
<path d="M6.9987 8.49972C7.42266 8.49972 7.78572 8.34863 8.08789 8.04647C8.38954 7.74481 8.54037 7.38201 8.54037 6.95805C8.54037 6.53409 8.38954 6.17103 8.08789 5.86886C7.78572 5.56721 7.42266 5.41638 6.9987 5.41638C6.57474 5.41638 6.21193 5.56721 5.91028 5.86886C5.60812 6.17103 5.45703 6.53409 5.45703 6.95805C5.45703 7.38201 5.60812 7.74481 5.91028 8.04647C6.21193 8.34863 6.57474 8.49972 6.9987 8.49972ZM6.9987 14.1653C8.56606 12.7265 9.72873 11.4191 10.4867 10.2433C11.2447 9.06808 11.6237 8.02437 11.6237 7.11222C11.6237 5.71187 11.1771 4.56512 10.284 3.67199C9.39136 2.77936 8.29627 2.33305 6.9987 2.33305C5.70113 2.33305 4.60577 2.77936 3.71264 3.67199C2.82001 4.56512 2.3737 5.71187 2.3737 7.11222C2.3737 8.02437 2.75269 9.06808 3.51068 10.2433C4.26866 11.4191 5.43134 12.7265 6.9987 14.1653ZM6.9987 16.208C4.9303 14.448 3.38555 12.813 2.36445 11.3032C1.34284 9.79395 0.832031 8.39694 0.832031 7.11222C0.832031 5.18513 1.45204 3.64989 2.69205 2.50649C3.93155 1.36308 5.3671 0.791382 6.9987 0.791382C8.6303 0.791382 10.0658 1.36308 11.3053 2.50649C12.5454 3.64989 13.1654 5.18513 13.1654 7.11222C13.1654 8.39694 12.6548 9.79395 11.6337 11.3032C10.6121 12.813 9.0671 14.448 6.9987 16.208Z" fill="#EB5757"/>
</svg>
