<svg width="14" height="13" viewBox="0 0 14 13" fill="none" xmlns="http://www.w3.org/2000/svg">
<path d="M0.833496 12.875V11.4583H12.1668V12.875H0.833496ZM3.66683 10.0417C2.88766 10.0417 2.22065 9.76424 1.66579 9.20937C1.11093 8.65451 0.833496 7.9875 0.833496 7.20833V0.125H12.1668C12.5564 0.125 12.89 0.263597 13.1677 0.540792C13.4449 0.818458 13.5835 1.15208 13.5835 1.54167V3.66667C13.5835 4.05625 13.4449 4.38964 13.1677 4.66683C12.89 4.9445 12.5564 5.08333 12.1668 5.08333H10.7502V7.20833C10.7502 7.9875 10.4727 8.65451 9.91787 9.20937C9.36301 9.76424 8.696 10.0417 7.91683 10.0417H3.66683ZM3.66683 8.625H7.91683C8.30641 8.625 8.64004 8.48617 8.9177 8.2085C9.1949 7.9313 9.3335 7.59792 9.3335 7.20833V1.54167H2.25016V7.20833C2.25016 7.59792 2.389 7.9313 2.66666 8.2085C2.94386 8.48617 3.27725 8.625 3.66683 8.625ZM10.7502 3.66667H12.1668V1.54167H10.7502V3.66667Z" fill="#828282"/>
</svg>
