<svg width="19" height="19" viewBox="0 0 19 19" fill="none" xmlns="http://www.w3.org/2000/svg">
<path d="M8.70911 18.2083V16.625C7.05981 16.4403 5.64484 15.7576 4.4642 14.577C3.28303 13.3958 2.60009 11.9806 2.41536 10.3313H0.832031V8.74793H2.41536C2.60009 7.09863 3.28303 5.68366 4.4642 4.50302C5.64484 3.32185 7.05981 2.63891 8.70911 2.45418V0.87085H10.2924V2.45418C11.9418 2.63891 13.357 3.32185 14.5382 4.50302C15.7188 5.68366 16.4015 7.09863 16.5862 8.74793H18.1695V10.3313H16.5862C16.4015 11.9806 15.7188 13.3958 14.5382 14.577C13.357 15.7576 11.9418 16.4403 10.2924 16.625V18.2083H8.70911ZM9.50078 15.0813C11.0313 15.0813 12.3376 14.5403 13.4195 13.4583C14.5015 12.3764 15.0424 11.0702 15.0424 9.5396C15.0424 8.00904 14.5015 6.70279 13.4195 5.62085C12.3376 4.53891 11.0313 3.99793 9.50078 3.99793C7.97023 3.99793 6.66398 4.53891 5.58203 5.62085C4.50009 6.70279 3.95911 8.00904 3.95911 9.5396C3.95911 11.0702 4.50009 12.3764 5.58203 13.4583C6.66398 14.5403 7.97023 15.0813 9.50078 15.0813Z" fill="#0047C3"/>
</svg>
