<svg width="19" height="23" viewBox="0 0 19 23" fill="none" xmlns="http://www.w3.org/2000/svg">
<path d="M0.78125 19.2344V17.5469H3.03125V9.39065C3.03125 7.85315 3.50487 6.49827 4.45213 5.32602C5.39862 4.15452 6.6125 3.40002 8.09375 3.06252V2.27502C8.09375 1.88127 8.22988 1.54827 8.50212 1.27602C8.77362 1.00452 9.10625 0.868774 9.5 0.868774C9.89375 0.868774 10.2264 1.00452 10.4979 1.27602C10.7701 1.54827 10.9062 1.88127 10.9062 2.27502V3.06252C12.3875 3.40002 13.6018 4.15452 14.549 5.32602C15.4955 6.49827 15.9688 7.85315 15.9688 9.39065V17.5469H18.2188V19.2344H0.78125ZM9.5 22.525C8.9375 22.525 8.45938 22.3281 8.06563 21.9344C7.67188 21.5406 7.475 21.0625 7.475 20.5H11.525C11.525 21.0625 11.3281 21.5406 10.9344 21.9344C10.5406 22.3281 10.0625 22.525 9.5 22.525ZM4.71875 17.5469H14.2812V9.39065C14.2812 8.0594 13.817 6.92952 12.8885 6.00102C11.9607 5.07327 10.8313 4.6094 9.5 4.6094C8.16875 4.6094 7.03925 5.07327 6.1115 6.00102C5.183 6.92952 4.71875 8.0594 4.71875 9.39065V17.5469Z" fill="#828282"/>
</svg>
