<svg width="45" height="44" viewBox="0 0 45 44" fill="none" xmlns="http://www.w3.org/2000/svg">
<mask id="mask0_668_18353" style="mask-type:alpha" maskUnits="userSpaceOnUse" x="0" y="0" width="45" height="44">
<rect x="0.5" width="44" height="44" fill="#D9D9D9"/>
</mask>
<g mask="url(#mask0_668_18353)">
<path d="M4.16602 12.8335V3.66684H13.3327V7.33351H7.83268V12.8335H4.16602ZM4.16602 40.3335V31.1668H7.83268V36.6668H13.3327V40.3335H4.16602ZM31.666 40.3335V36.6668H37.166V31.1668H40.8327V40.3335H31.666ZM37.166 12.8335V7.33351H31.666V3.66684H40.8327V12.8335H37.166ZM32.5827 32.0835H35.3327V34.8335H32.5827V32.0835ZM32.5827 26.5835H35.3327V29.3335H32.5827V26.5835ZM29.8327 29.3335H32.5827V32.0835H29.8327V29.3335ZM27.0827 32.0835H29.8327V34.8335H27.0827V32.0835ZM24.3327 29.3335H27.0827V32.0835H24.3327V29.3335ZM29.8327 23.8335H32.5827V26.5835H29.8327V23.8335ZM27.0827 26.5835H29.8327V29.3335H27.0827V26.5835ZM24.3327 23.8335H27.0827V26.5835H24.3327V23.8335ZM35.3327 9.16684V20.1668H24.3327V9.16684H35.3327ZM20.666 23.8335V34.8335H9.66602V23.8335H20.666ZM20.666 9.16684V20.1668H9.66602V9.16684H20.666ZM17.916 32.0835V26.5835H12.416V32.0835H17.916ZM17.916 17.4168V11.9168H12.416V17.4168H17.916ZM32.5827 17.4168V11.9168H27.0827V17.4168H32.5827Z" fill="#0047C3"/>
</g>
</svg>
