<svg width="11" height="14" viewBox="0 0 11 14" fill="none" xmlns="http://www.w3.org/2000/svg">
<path d="M2.6665 13.6666V7.56659C2.09984 7.41103 1.62484 7.09992 1.2415 6.63325C0.858171 6.16658 0.666504 5.62214 0.666504 4.99992V0.333252H1.99984V4.99992H2.6665V0.333252H3.99984V4.99992H4.6665V0.333252H5.99984V4.99992C5.99984 5.62214 5.80817 6.16658 5.42484 6.63325C5.0415 7.09992 4.5665 7.41103 3.99984 7.56659V13.6666H2.6665ZM9.33317 13.6666V8.33325H7.33317V3.66658C7.33317 2.74436 7.65817 1.95825 8.30817 1.30825C8.95817 0.658252 9.74428 0.333252 10.6665 0.333252V13.6666H9.33317Z" fill="#959595"/>
</svg>
