<svg width="12" height="14" viewBox="0 0 12 14" fill="none" xmlns="http://www.w3.org/2000/svg">
<path d="M1.66602 13.6668V8.66683H0.666016V5.00016C0.666016 4.6335 0.796682 4.3195 1.05802 4.05816C1.3189 3.79727 1.63268 3.66683 1.99935 3.66683H3.99935C4.36602 3.66683 4.68002 3.79727 4.94135 4.05816C5.20224 4.3195 5.33268 4.6335 5.33268 5.00016V8.66683H4.33268V13.6668H1.66602ZM2.99935 3.00016C2.63268 3.00016 2.3189 2.8695 2.05802 2.60816C1.79668 2.34727 1.66602 2.0335 1.66602 1.66683C1.66602 1.30016 1.79668 0.986163 2.05802 0.724829C2.3189 0.46394 2.63268 0.333496 2.99935 0.333496C3.36602 0.333496 3.68002 0.46394 3.94135 0.724829C4.20224 0.986163 4.33268 1.30016 4.33268 1.66683C4.33268 2.0335 4.20224 2.34727 3.94135 2.60816C3.68002 2.8695 3.36602 3.00016 2.99935 3.00016ZM7.99935 13.6668V9.66683H5.99935L7.69935 4.56683C7.78824 4.27794 7.95224 4.05572 8.19135 3.90016C8.43001 3.74461 8.69935 3.66683 8.99935 3.66683C9.29935 3.66683 9.56868 3.74461 9.80735 3.90016C10.0465 4.05572 10.2105 4.27794 10.2993 4.56683L11.9993 9.66683H9.99935V13.6668H7.99935ZM8.99935 3.00016C8.63268 3.00016 8.3189 2.8695 8.05801 2.60816C7.79668 2.34727 7.66601 2.0335 7.66601 1.66683C7.66601 1.30016 7.79668 0.986163 8.05801 0.724829C8.3189 0.46394 8.63268 0.333496 8.99935 0.333496C9.36601 0.333496 9.68001 0.46394 9.94135 0.724829C10.2022 0.986163 10.3327 1.30016 10.3327 1.66683C10.3327 2.0335 10.2022 2.34727 9.94135 2.60816C9.68001 2.8695 9.36601 3.00016 8.99935 3.00016Z" fill="#4F4F4F"/>
</svg>
