<svg width="17" height="18" viewBox="0 0 17 18" fill="none" xmlns="http://www.w3.org/2000/svg">
<path d="M5.69312 17.4198C4.66406 17.4198 3.78312 17.0534 3.05031 16.3206C2.3175 15.5878 1.95109 14.7068 1.95109 13.6778V6.03001C1.40538 5.82732 0.956959 5.48804 0.605833 5.01218C0.25533 4.53694 0.0800781 3.99529 0.0800781 3.38721C0.0800781 2.60762 0.352934 1.94497 0.898646 1.39926C1.44436 0.853544 2.10701 0.580688 2.8866 0.580688C3.66619 0.580688 4.32884 0.853544 4.87455 1.39926C5.42026 1.94497 5.69312 2.60762 5.69312 3.38721C5.69312 3.99529 5.51786 4.53694 5.16736 5.01218C4.81623 5.48804 4.36781 5.82732 3.8221 6.03001V13.6778C3.8221 14.1923 4.00546 14.6329 4.37218 14.9996C4.73828 15.3657 5.17859 15.5488 5.69312 15.5488C6.20764 15.5488 6.64827 15.3657 7.01499 14.9996C7.38108 14.6329 7.56413 14.1923 7.56413 13.6778V4.32271C7.56413 3.29366 7.93053 2.41272 8.66335 1.67991C9.39616 0.947095 10.2771 0.580688 11.3062 0.580688C12.3352 0.580688 13.2161 0.947095 13.949 1.67991C14.6818 2.41272 15.0482 3.29366 15.0482 4.32271V11.9705C15.5939 12.1732 16.0423 12.5121 16.3934 12.9874C16.7439 13.4632 16.9192 14.0052 16.9192 14.6133C16.9192 15.3929 16.6463 16.0555 16.1006 16.6012C15.5549 17.1469 14.8923 17.4198 14.1127 17.4198C13.3331 17.4198 12.6704 17.1469 12.1247 16.6012C11.579 16.0555 11.3062 15.3929 11.3062 14.6133C11.3062 14.0052 11.4814 13.4595 11.8319 12.9761C12.183 12.4928 12.6315 12.1576 13.1772 11.9705V4.32271C13.1772 3.80818 12.9941 3.36787 12.628 3.00178C12.2613 2.63506 11.8207 2.4517 11.3062 2.4517C10.7916 2.4517 10.3513 2.63506 9.98522 3.00178C9.6185 3.36787 9.43514 3.80818 9.43514 4.32271V13.6778C9.43514 14.7068 9.06873 15.5878 8.33592 16.3206C7.60311 17.0534 6.72217 17.4198 5.69312 17.4198ZM2.8866 4.32271C3.15166 4.32271 3.374 4.23322 3.55361 4.05422C3.73261 3.87461 3.8221 3.65227 3.8221 3.38721C3.8221 3.12215 3.73261 2.89981 3.55361 2.72019C3.374 2.5412 3.15166 2.4517 2.8866 2.4517C2.62154 2.4517 2.3992 2.5412 2.21958 2.72019C2.04059 2.89981 1.95109 3.12215 1.95109 3.38721C1.95109 3.65227 2.04059 3.87461 2.21958 4.05422C2.3992 4.23322 2.62154 4.32271 2.8866 4.32271ZM14.1127 15.5488C14.3777 15.5488 14.5998 15.459 14.7788 15.2794C14.9584 15.1004 15.0482 14.8783 15.0482 14.6133C15.0482 14.3482 14.9584 14.1262 14.7788 13.9472C14.5998 13.7676 14.3777 13.6778 14.1127 13.6778C13.8476 13.6778 13.6256 13.7676 13.4466 13.9472C13.267 14.1262 13.1772 14.3482 13.1772 14.6133C13.1772 14.8783 13.267 15.1004 13.4466 15.2794C13.6256 15.459 13.8476 15.5488 14.1127 15.5488Z" fill="#DEEAFF"/>
</svg>
