<svg width="16" height="16" viewBox="0 0 16 16" fill="none" xmlns="http://www.w3.org/2000/svg">
<mask id="mask0_1667_18553" style="mask-type:alpha" maskUnits="userSpaceOnUse" x="0" y="0" width="16" height="16">
<rect width="16" height="16" fill="#D9D9D9"/>
</mask>
<g mask="url(#mask0_1667_18553)">
<path d="M10.317 11.0167L11.017 10.3167L8.50033 7.80002V4.66669H7.50033V8.20002L10.317 11.0167ZM8.00033 14.3334C7.12255 14.3334 6.29766 14.1667 5.52566 13.8334C4.75321 13.5 4.08366 13.05 3.51699 12.4834C2.95033 11.9167 2.50033 11.2471 2.16699 10.4747C1.83366 9.70269 1.66699 8.8778 1.66699 8.00002C1.66699 7.12224 1.83366 6.29713 2.16699 5.52469C2.50033 4.75269 2.95033 4.08335 3.51699 3.51669C4.08366 2.95002 4.75321 2.50002 5.52566 2.16669C6.29766 1.83335 7.12255 1.66669 8.00033 1.66669C8.8781 1.66669 9.70321 1.83335 10.4757 2.16669C11.2477 2.50002 11.917 2.95002 12.4837 3.51669C13.0503 4.08335 13.5003 4.75269 13.8337 5.52469C14.167 6.29713 14.3337 7.12224 14.3337 8.00002C14.3337 8.8778 14.167 9.70269 13.8337 10.4747C13.5003 11.2471 13.0503 11.9167 12.4837 12.4834C11.917 13.05 11.2477 13.5 10.4757 13.8334C9.70321 14.1667 8.8781 14.3334 8.00033 14.3334ZM8.00033 13.3334C9.4781 13.3334 10.7365 12.814 11.7757 11.7754C12.8143 10.7362 13.3337 9.4778 13.3337 8.00002C13.3337 6.52224 12.8143 5.2638 11.7757 4.22469C10.7365 3.18602 9.4781 2.66669 8.00033 2.66669C6.52255 2.66669 5.26433 3.18602 4.22566 4.22469C3.18655 5.2638 2.66699 6.52224 2.66699 8.00002C2.66699 9.4778 3.18655 10.7362 4.22566 11.7754C5.26433 12.814 6.52255 13.3334 8.00033 13.3334Z" fill="#232323"/>
</g>
</svg>
