<svg width="14" height="16" viewBox="0 0 14 16" fill="none" xmlns="http://www.w3.org/2000/svg">
<path d="M11.5996 15.3125C11.0246 15.3125 10.5371 15.1125 10.1371 14.7125C9.73711 14.3125 9.53711 13.825 9.53711 13.25C9.53711 13.1625 9.54336 13.0655 9.55586 12.959C9.56836 12.853 9.59336 12.7625 9.63086 12.6875L4.08086 9.425C3.88086 9.625 3.65586 9.78125 3.40586 9.89375C3.15586 10.0062 2.88711 10.0625 2.59961 10.0625C2.02461 10.0625 1.53711 9.8625 1.13711 9.4625C0.737109 9.0625 0.537109 8.575 0.537109 8C0.537109 7.425 0.737109 6.9375 1.13711 6.5375C1.53711 6.1375 2.02461 5.9375 2.59961 5.9375C2.88711 5.9375 3.15586 5.99375 3.40586 6.10625C3.65586 6.21875 3.88086 6.375 4.08086 6.575L9.63086 3.3125C9.59336 3.2375 9.56836 3.14675 9.55586 3.04025C9.54336 2.93425 9.53711 2.8375 9.53711 2.75C9.53711 2.175 9.73711 1.6875 10.1371 1.2875C10.5371 0.8875 11.0246 0.6875 11.5996 0.6875C12.1746 0.6875 12.6621 0.8875 13.0621 1.2875C13.4621 1.6875 13.6621 2.175 13.6621 2.75C13.6621 3.325 13.4621 3.8125 13.0621 4.2125C12.6621 4.6125 12.1746 4.8125 11.5996 4.8125C11.3121 4.8125 11.0434 4.75625 10.7934 4.64375C10.5434 4.53125 10.3184 4.375 10.1184 4.175L4.56836 7.4375C4.60586 7.5125 4.63086 7.6 4.64336 7.7C4.65586 7.8 4.66211 7.9 4.66211 8C4.66211 8.0875 4.65586 8.18425 4.64336 8.29025C4.63086 8.39675 4.60586 8.4875 4.56836 8.5625L10.1184 11.825C10.3184 11.625 10.5434 11.4688 10.7934 11.3563C11.0434 11.2438 11.3121 11.1875 11.5996 11.1875C12.1746 11.1875 12.6621 11.3875 13.0621 11.7875C13.4621 12.1875 13.6621 12.675 13.6621 13.25C13.6621 13.825 13.4621 14.3125 13.0621 14.7125C12.6621 15.1125 12.1746 15.3125 11.5996 15.3125ZM11.5996 3.6875C11.8621 3.6875 12.0841 3.59675 12.2656 3.41525C12.4466 3.23425 12.5371 3.0125 12.5371 2.75C12.5371 2.4875 12.4466 2.2655 12.2656 2.084C12.0841 1.903 11.8621 1.8125 11.5996 1.8125C11.3371 1.8125 11.1154 1.903 10.9344 2.084C10.7529 2.2655 10.6621 2.4875 10.6621 2.75C10.6621 3.0125 10.7529 3.23425 10.9344 3.41525C11.1154 3.59675 11.3371 3.6875 11.5996 3.6875ZM2.59961 8.9375C2.86211 8.9375 3.08411 8.84675 3.26561 8.66525C3.44661 8.48425 3.53711 8.2625 3.53711 8C3.53711 7.7375 3.44661 7.51575 3.26561 7.33475C3.08411 7.15325 2.86211 7.0625 2.59961 7.0625C2.33711 7.0625 2.11536 7.15325 1.93436 7.33475C1.75286 7.51575 1.66211 7.7375 1.66211 8C1.66211 8.2625 1.75286 8.48425 1.93436 8.66525C2.11536 8.84675 2.33711 8.9375 2.59961 8.9375ZM11.5996 14.1875C11.8621 14.1875 12.0841 14.0967 12.2656 13.9152C12.4466 13.7342 12.5371 13.5125 12.5371 13.25C12.5371 12.9875 12.4466 12.7658 12.2656 12.5848C12.0841 12.4033 11.8621 12.3125 11.5996 12.3125C11.3371 12.3125 11.1154 12.4033 10.9344 12.5848C10.7529 12.7658 10.6621 12.9875 10.6621 13.25C10.6621 13.5125 10.7529 13.7342 10.9344 13.9152C11.1154 14.0967 11.3371 14.1875 11.5996 14.1875Z" fill="#828282"/>
</svg>
