<svg width="13" height="16" viewBox="0 0 13 16" fill="none" xmlns="http://www.w3.org/2000/svg">
<path d="M1.54167 15.0835C1.15208 15.0835 0.818458 14.9449 0.540792 14.6677C0.263597 14.39 0.125 14.0564 0.125 13.6668V5.16683C0.125 4.77725 0.263597 4.44386 0.540792 4.16666C0.818458 3.889 1.15208 3.75016 1.54167 3.75016H2.95833C2.95833 2.7703 3.30376 1.93494 3.99463 1.24408C4.68501 0.55369 5.52014 0.208496 6.5 0.208496C7.47986 0.208496 8.31522 0.55369 9.00608 1.24408C9.69647 1.93494 10.0417 2.7703 10.0417 3.75016H11.4583C11.8479 3.75016 12.1815 3.889 12.4592 4.16666C12.7364 4.44386 12.875 4.77725 12.875 5.16683V13.6668C12.875 14.0564 12.7364 14.39 12.4592 14.6677C12.1815 14.9449 11.8479 15.0835 11.4583 15.0835H1.54167ZM1.54167 13.6668H11.4583V5.16683H1.54167V13.6668ZM6.5 9.41683C7.47986 9.41683 8.31522 9.0714 9.00608 8.38054C9.69647 7.69015 10.0417 6.85502 10.0417 5.87516H8.625C8.625 6.46544 8.4184 6.96718 8.00521 7.38037C7.59201 7.79357 7.09028 8.00016 6.5 8.00016C5.90972 8.00016 5.40799 7.79357 4.99479 7.38037C4.5816 6.96718 4.375 6.46544 4.375 5.87516H2.95833C2.95833 6.85502 3.30376 7.69015 3.99463 8.38054C4.68501 9.0714 5.52014 9.41683 6.5 9.41683ZM4.375 3.75016H8.625C8.625 3.15988 8.4184 2.65815 8.00521 2.24495C7.59201 1.83176 7.09028 1.62516 6.5 1.62516C5.90972 1.62516 5.40799 1.83176 4.99479 2.24495C4.5816 2.65815 4.375 3.15988 4.375 3.75016Z" fill="#4F4F4F"/>
</svg>
