<svg width="116" height="56" viewBox="0 0 116 56" fill="none" xmlns="http://www.w3.org/2000/svg">
<path d="M30.8268 31.9792L43.8273 23.21C46.0321 30.4373 43.3935 38.5319 36.8029 42.9648C28.7304 48.4094 17.7663 46.2772 12.3203 38.1947C6.87437 30.1241 9.01901 19.1627 17.0915 13.718C22.9592 9.76711 30.3449 9.80324 36.0198 13.2242L44.261 7.67112C35.2848 0.154704 22.0797 -0.881218 11.8865 5.98474C-0.451183 14.3203 -3.71632 31.0757 4.60922 43.4104C12.9348 55.7572 29.6823 59.0094 42.02 50.698C52.8998 43.3623 56.7313 29.4977 51.7793 17.8497C51.1166 16.2837 50.2973 14.7539 49.3093 13.2844C48.5382 12.1401 47.7069 11.0801 46.7912 10.1044L25.6821 24.3422C23.5736 25.7636 23.0194 28.6305 24.4411 30.7384C25.8629 32.8344 28.7184 33.4005 30.8268 31.9792Z" fill="white"/>
<path d="M20.9467 25.6745L27.7189 35.7219C27.8032 35.8545 27.9839 35.8786 28.1044 35.7943L33.551 32.1199C33.6836 32.0355 33.7077 31.8548 33.6233 31.7343L26.8512 21.687C26.7669 21.5544 26.5861 21.5303 26.4657 21.6146L21.019 25.289C20.8986 25.3734 20.8624 25.542 20.9467 25.6745Z" fill="white"/>
<path d="M18.1168 30.9125C18.3455 31.2499 18.815 31.3463 19.1521 31.1174L23.2336 28.3578C23.5707 28.1289 23.667 27.6588 23.4383 27.3214C23.2095 26.984 22.74 26.8876 22.4028 27.1166L18.3214 29.8762C17.9843 30.1052 17.888 30.5631 18.1168 30.9125Z" fill="white"/>
<path d="M21.9782 32.2331C22.2069 32.5705 22.6761 32.6669 23.013 32.438L27.0922 29.6784C27.4291 29.4494 27.5253 28.9794 27.2968 28.642C27.0681 28.3046 26.5988 28.2082 26.2619 28.4371L22.1828 31.1967C21.8338 31.4257 21.7496 31.8836 21.9782 32.2331Z" fill="white"/>
<path d="M21.7928 36.3802C22.0222 36.7176 22.4932 36.814 22.8314 36.5851L26.9257 33.8255C27.2638 33.5965 27.3605 33.1266 27.131 32.7892C26.9015 32.4518 26.4305 32.3553 26.0924 32.5843L21.9981 35.3439C21.6479 35.5729 21.5633 36.0308 21.7928 36.3802Z" fill="white"/>
<path d="M29.485 26.3522L26.6 27.5926L27.1795 28.5078L24.5118 29.5916L28.7486 29.0979L28.1451 28.1827L30.4747 27.8937L29.485 26.3522Z" fill="#0245B8"/>
<path d="M102.411 0.686707C95.1076 0.686707 89.1852 6.60915 89.1852 13.9124C89.1852 21.2157 95.1076 27.1382 102.411 27.1382C109.717 27.1382 115.639 21.2157 115.639 13.9124C115.639 6.60915 109.717 0.686707 102.411 0.686707ZM102.411 22.5673C97.6325 22.5673 93.7587 18.6908 93.7587 13.9151C93.7587 9.1367 97.6352 5.2629 102.411 5.2629C107.192 5.2629 111.063 9.13936 111.063 13.9151C111.063 18.6908 107.189 22.5673 102.411 22.5673Z" fill="white"/>
<path d="M74.1183 16.4478L81.8127 16.4212C80.7405 19.9677 77.4547 22.5538 73.557 22.5671C68.7786 22.5831 64.8914 18.7253 64.8728 13.9442C64.8569 9.1658 68.7174 5.2787 73.4958 5.26007C76.9652 5.24677 79.9663 7.27945 81.3524 10.2247L86.2266 10.2087C84.6196 4.69071 79.514 0.667917 73.4798 0.689201C66.1765 0.715807 60.2727 6.65687 60.2993 13.9628C60.3259 21.2688 66.267 27.1699 73.5729 27.1433C80.0142 27.122 85.3593 22.5059 86.5193 16.4079C86.6789 15.5884 86.7587 14.7397 86.7561 13.8724C86.7534 13.1966 86.7002 12.5341 86.5991 11.8876L74.1024 11.9301C72.8546 11.9355 71.8462 12.9491 71.8489 14.197C71.8568 15.4421 72.8705 16.4505 74.1183 16.4478Z" fill="#13F2AD"/>
<path d="M115.546 45.0331C114.474 51.2615 109.047 56 102.51 56C95.2063 56 89.2838 50.0775 89.2838 42.7742C89.2838 35.4709 95.2063 29.5485 102.51 29.5485C109.047 29.5485 114.477 34.287 115.546 40.5154H110.864C109.869 36.8332 106.506 34.122 102.51 34.122C97.7311 34.122 93.8573 37.9985 93.8573 42.7742C93.8573 47.5526 97.7338 51.4264 102.51 51.4264C106.506 51.4264 109.869 48.718 110.864 45.0331H115.546Z" fill="#0BF1A7"/>
<path d="M74.1127 40.2307H81.8097C80.7242 36.6841 77.4304 34.1113 73.53 34.1113C68.7516 34.1113 64.8725 37.9851 64.8725 42.7689C64.8725 47.5473 68.7489 51.4264 73.53 51.4264C77.0021 51.4264 79.9979 49.3831 81.3734 46.4325H86.2502C84.6619 51.9585 79.5669 55.9999 73.53 55.9999C66.2241 55.9999 60.299 50.0748 60.299 42.7689C60.299 35.4576 66.2241 29.5378 73.53 29.5378C79.9739 29.5378 85.3376 34.138 86.5189 40.2333C86.6812 41.0528 86.7637 41.9015 86.7637 42.7689C86.7637 43.4447 86.7132 44.1071 86.6121 44.7537H74.11C72.8622 44.7537 71.8485 43.7426 71.8485 42.4922C71.8538 41.2417 72.8649 40.2307 74.1127 40.2307Z" fill="white"/>
</svg>
