<svg width="16" height="16" viewBox="0 0 16 16" fill="none" xmlns="http://www.w3.org/2000/svg">
<path d="M8.5622 14.8125H8.56211C8.55376 14.8125 8.5455 14.8109 8.5378 14.8076C8.53011 14.8044 8.52314 14.7996 8.51732 14.7937C8.51149 14.7877 8.50693 14.7806 8.50388 14.7728C8.50084 14.7651 8.49939 14.7567 8.49961 14.7484L8.49978 14.7484V14.7353V8.28586C8.49978 8.07866 8.41747 7.87995 8.27096 7.73343C8.12444 7.58692 7.92573 7.50461 7.71853 7.50461H1.26419V7.50457L1.25827 7.50465C1.24313 7.50482 1.2283 7.50031 1.21582 7.49173C1.20439 7.48388 1.19544 7.47296 1.18998 7.46026C1.18598 7.4465 1.18683 7.43174 1.19244 7.41847C1.19852 7.40411 1.20975 7.39254 1.22392 7.38603L14.7236 1.19343C14.7351 1.18812 14.7481 1.18648 14.7606 1.18873C14.7732 1.19098 14.7847 1.19701 14.7938 1.20602C14.8028 1.21503 14.8088 1.22657 14.8111 1.23912L15.3031 1.15013L14.8111 1.23912C14.8133 1.25157 14.8118 1.2644 14.8066 1.27593C14.8065 1.27602 14.8065 1.27611 14.8065 1.2762L8.61927 14.7755L8.61903 14.776C8.61405 14.7869 8.60605 14.7961 8.59598 14.8026C8.5859 14.8091 8.57418 14.8125 8.5622 14.8125Z" stroke="#828282"/>
</svg>
