<svg width="19" height="16" viewBox="0 0 19 16" fill="none" xmlns="http://www.w3.org/2000/svg">
<mask id="path-1-outside-1_1294_4048" maskUnits="userSpaceOnUse" x="0.226562" y="0" width="19" height="16" fill="black">
<rect fill="white" x="0.226562" width="19" height="16"/>
<path fill-rule="evenodd" clip-rule="evenodd" d="M5.65296 2C4.7932 2 3.94165 2.33088 3.46515 3.04652C2.68261 4.22177 2.22656 5.63309 2.22656 7.15093C2.22656 11.2462 5.54641 14.566 9.64166 14.566C13.7369 14.566 17.0567 11.2462 17.0567 7.15093C17.0567 5.63309 16.6007 4.22177 15.8182 3.04652C15.3417 2.33088 14.4901 2 13.6304 2H5.65296Z"/>
</mask>
<path d="M3.51443 7.15093C3.51443 5.89488 3.89099 4.73068 4.53713 3.76029L2.39317 2.33274C1.47422 3.71286 0.938693 5.37131 0.938693 7.15093H3.51443ZM9.64166 13.2782C6.25768 13.2782 3.51443 10.5349 3.51443 7.15093H0.938693C0.938693 11.9574 4.83514 15.8539 9.64166 15.8539V13.2782ZM15.7689 7.15093C15.7689 10.5349 13.0256 13.2782 9.64166 13.2782V15.8539C14.4482 15.8539 18.3446 11.9574 18.3446 7.15093H15.7689ZM14.7462 3.76029C15.3923 4.73068 15.7689 5.89488 15.7689 7.15093H18.3446C18.3446 5.37131 17.8091 3.71286 16.8901 2.33274L14.7462 3.76029ZM13.6304 0.71213H5.65296V3.28787H13.6304V0.71213ZM16.8901 2.33274C16.1079 1.15788 14.7842 0.71213 13.6304 0.71213V3.28787C14.196 3.28787 14.5755 3.50388 14.7462 3.76029L16.8901 2.33274ZM4.53713 3.76029C4.70786 3.50388 5.08728 3.28787 5.65296 3.28787V0.71213C4.49911 0.71213 3.17545 1.15788 2.39317 2.33274L4.53713 3.76029Z" fill="#333333" mask="url(#path-1-outside-1_1294_4048)"/>
<circle cx="7.09493" cy="3.98116" r="1.18868" fill="#333333"/>
<circle cx="11.9631" cy="3.98116" r="1.18868" fill="#333333"/>
<circle cx="4.66097" cy="7.37728" r="1.75472" fill="#333333"/>
<circle cx="9.52913" cy="7.37728" r="1.75472" fill="#333333"/>
<circle cx="14.3973" cy="7.37728" r="1.75472" fill="#333333"/>
<circle cx="7.09456" cy="11.3397" r="1.75472" fill="#333333"/>
<circle cx="11.9627" cy="11.3397" r="1.75472" fill="#333333"/>
</svg>
