<svg width="20" height="20" viewBox="0 0 20 20" fill="none" xmlns="http://www.w3.org/2000/svg">
<path d="M11 7C11 8.1 11.9 9 13 9C14.1 9 15 8.1 15 7C15 5.9 14.1 5 13 5C11.9 5 11 5.9 11 7ZM5 7C5 8.1 5.9 9 7 9C8.1 9 9 8.1 9 7C9 5.9 8.1 5 7 5C5.9 5 5 5.9 5 7ZM7 11.2C7 10.6 6.4 10 5.8 10C5.2 10 4.6 10.6 4.6 11.2C4.6 11.8 5.2 12.4 5.8 12.4C6.4 12.4 7 11.9 7 11.2ZM12 14C12 12.9 11.1 12 10 12C8.9 12 8 12.9 8 14C8 15.1 8.9 16 10 16C11.1 16 12 15.1 12 14ZM10 2C14.4 2 18 5.6 18 10C18 14.4 14.4 18 10 18C5.6 18 2 14.4 2 10C2 5.6 5.6 2 10 2ZM10 0C4.5 0 0 4.5 0 10C0 15.5 4.5 20 10 20C15.5 20 20 15.5 20 10C20 4.5 15.5 0 10 0ZM15.5 11.2C15.5 10.5 14.9 10 14.3 10C13.6 10 13.1 10.6 13.1 11.2C13.1 11.8 13.7 12.4 14.3 12.4C14.9 12.5 15.5 11.9 15.5 11.2Z" fill="#0047C3"/>
</svg>
