<svg width="21" height="20" viewBox="0 0 21 20" fill="none" xmlns="http://www.w3.org/2000/svg">
<path d="M10.3802 19.9993C7.74132 19.9993 5.15707 18.7479 3.2209 16.5129C1.13235 14.102 -0.011415 10.8723 8.5896e-05 7.41931C0.00698641 5.41875 0.393413 3.50793 1.14787 1.73971C1.6056 0.666389 2.509 0 3.50555 0H17.2088C18.2031 0 19.1042 0.660823 19.5596 1.7251C20.3256 3.51419 20.7143 5.44797 20.7143 7.47218C20.7143 14.1493 16.3997 19.6452 10.8914 19.984C10.7212 19.9944 10.5498 20 10.3796 20L10.3802 19.9993ZM3.50555 1.21592C2.88737 1.21592 2.32614 1.6305 2.04149 2.29758C1.36006 3.89399 1.01159 5.61839 1.00526 7.42487C0.994909 10.5405 2.02826 13.4558 3.91498 15.6337C5.80399 17.8144 8.25943 18.9295 10.8402 18.7695C15.8132 18.4634 19.7085 13.501 19.7085 7.47218C19.7085 5.64483 19.3578 3.89886 18.6666 2.28436C18.3848 1.62563 17.8258 1.21661 17.2082 1.21661H3.50497L3.50555 1.21592Z" fill="black"/>
<path d="M5.11429 11.8919C3.52581 11.8919 2.23291 10.5869 2.23291 8.98226C2.23291 7.37763 3.52523 6.07324 5.11429 6.07324C6.70336 6.07324 7.99567 7.37822 7.99567 8.98226C7.99567 10.5863 6.70336 11.8919 5.11429 11.8919ZM5.11429 6.89524C3.97442 6.89524 3.04693 7.83181 3.04693 8.98226C3.04693 10.1327 3.97442 11.0699 5.11429 11.0699C6.25416 11.0699 7.18165 10.1333 7.18165 8.98226C7.18165 7.83123 6.25416 6.89524 5.11429 6.89524Z" fill="black"/>
<path d="M15.8746 11.8919C14.2708 11.8919 12.9653 10.5869 12.9653 8.98226C12.9653 7.37763 14.2702 6.07324 15.8746 6.07324C17.4791 6.07324 18.784 7.37822 18.784 8.98226C18.784 10.5863 17.4791 11.8919 15.8746 11.8919ZM15.8746 6.89524C14.7237 6.89524 13.7872 7.83181 13.7872 8.98226C13.7872 10.1327 14.7237 11.0699 15.8746 11.0699C17.0256 11.0699 17.962 10.1333 17.962 8.98226C17.962 7.83123 17.0256 6.89524 15.8746 6.89524Z" fill="black"/>
<path d="M10.7653 16.6253C9.16139 16.6253 7.85596 15.3203 7.85596 13.7157C7.85596 12.111 9.1608 10.8066 10.7653 10.8066C12.3697 10.8066 13.6746 12.1116 13.6746 13.7157C13.6746 15.3197 12.3697 16.6253 10.7653 16.6253ZM10.7653 11.6286C9.61435 11.6286 8.67787 12.5652 8.67787 13.7157C8.67787 14.8661 9.61435 15.8033 10.7653 15.8033C11.9162 15.8033 12.8527 14.8667 12.8527 13.7157C12.8527 12.5646 11.9162 11.6286 10.7653 11.6286Z" fill="black"/>
<path d="M15.8855 10.706C14.9229 10.706 14.1396 9.92268 14.1396 8.96043C14.1396 7.99818 14.9229 7.21484 15.8855 7.21484C16.8481 7.21484 17.6308 7.99818 17.6308 8.96043C17.6308 9.92268 16.8476 10.706 15.8855 10.706ZM15.8855 7.93153C15.3181 7.93153 14.8567 8.39292 14.8567 8.95992C14.8567 9.52691 15.3181 9.9883 15.8855 9.9883C16.4529 9.9883 16.9137 9.52691 16.9137 8.95992C16.9137 8.39292 16.4524 7.93153 15.8855 7.93153Z" fill="black"/>
<path d="M10.7751 15.4394C9.81252 15.4394 9.0293 14.6561 9.0293 13.6938C9.0293 12.7316 9.81252 11.9482 10.7751 11.9482C11.7378 11.9482 12.5205 12.7316 12.5205 13.6938C12.5205 14.6561 11.7372 15.4394 10.7751 15.4394ZM10.7751 12.6649C10.2077 12.6649 9.74639 13.1263 9.74639 13.6933C9.74639 14.2603 10.2077 14.7217 10.7751 14.7217C11.3426 14.7217 11.8034 14.2603 11.8034 13.6933C11.8034 13.1263 11.3421 12.6649 10.7751 12.6649Z" fill="black"/>
<path d="M5.12084 10.706C4.15822 10.706 3.375 9.92268 3.375 8.96043C3.375 7.99818 4.15822 7.21484 5.12084 7.21484C6.08346 7.21484 6.86617 7.99818 6.86617 8.96043C6.86617 9.92268 6.08295 10.706 5.12084 10.706ZM5.12084 7.93153C4.55342 7.93153 4.0921 8.39292 4.0921 8.95992C4.0921 9.52691 4.55342 9.9883 5.12084 9.9883C5.68827 9.9883 6.14907 9.52691 6.14907 8.95992C6.14907 8.39292 5.68775 7.93153 5.12084 7.93153Z" fill="black"/>
<path d="M15.4968 15.2895C14.6525 15.2895 13.9653 14.6023 13.9653 13.758C13.9653 12.9137 14.6525 12.2266 15.4968 12.2266C16.3411 12.2266 17.0283 12.9137 17.0283 13.758C17.0283 14.6023 16.3411 15.2895 15.4968 15.2895ZM15.4968 13.04C15.1011 13.04 14.7788 13.3618 14.7788 13.758C14.7788 14.1543 15.1005 14.4755 15.4968 14.4755C15.893 14.4755 16.2142 14.1537 16.2142 13.758C16.2142 13.3624 15.8925 13.04 15.4968 13.04Z" fill="black"/>
<path d="M6.01241 15.4638C5.16813 15.4638 4.48096 14.7766 4.48096 13.9323C4.48096 13.0881 5.16813 12.4009 6.01241 12.4009C6.8567 12.4009 7.54388 13.0881 7.54388 13.9323C7.54388 14.7766 6.8567 15.4638 6.01241 15.4638ZM6.01241 13.2143C5.61675 13.2143 5.2944 13.5361 5.2944 13.9323C5.2944 14.3286 5.61617 14.6498 6.01241 14.6498C6.40866 14.6498 6.72985 14.328 6.72985 13.9323C6.72985 13.5367 6.40808 13.2143 6.01241 13.2143Z" fill="black"/>
<path d="M10.4807 9.38812C9.6364 9.38812 8.94922 8.70094 8.94922 7.85666C8.94922 7.01237 9.6364 6.3252 10.4807 6.3252C11.325 6.3252 12.0121 7.01237 12.0121 7.85666C12.0121 8.70094 11.325 9.38812 10.4807 9.38812ZM10.4807 7.13864C10.085 7.13864 9.76267 7.46041 9.76267 7.85607C9.76267 8.25174 10.0844 8.57409 10.4807 8.57409C10.8769 8.57409 11.1981 8.25232 11.1981 7.85607C11.1981 7.45983 10.8763 7.13864 10.4807 7.13864Z" fill="black"/>
<path d="M10.7658 5.64733C9.8346 5.64733 9.07666 4.88939 9.07666 3.95818C9.07666 3.02697 9.8346 2.26904 10.7658 2.26904C11.697 2.26904 12.4549 3.02697 12.4549 3.95818C12.4549 4.88939 11.697 5.64733 10.7658 5.64733ZM10.7658 3.16624C10.3294 3.16624 9.97386 3.52114 9.97386 3.95754C9.97386 4.39395 10.3288 4.74949 10.7658 4.74949C11.2029 4.74949 11.5571 4.39459 11.5571 3.95754C11.5571 3.5205 11.2022 3.16624 10.7658 3.16624Z" fill="black"/>
<path d="M10.7358 4.47989C10.4631 4.47989 10.2412 4.25796 10.2412 3.98531C10.2412 3.71265 10.4631 3.49072 10.7358 3.49072C11.0085 3.49072 11.2304 3.71265 11.2304 3.98531C11.2304 4.25796 11.0085 4.47989 10.7358 4.47989ZM10.7358 3.75342C10.608 3.75342 10.5039 3.85734 10.5039 3.98512C10.5039 4.1129 10.6078 4.217 10.7358 4.217C10.8638 4.217 10.9675 4.11309 10.9675 3.98512C10.9675 3.85715 10.8636 3.75342 10.7358 3.75342Z" fill="black"/>
<path d="M14.6342 4.47989C14.3616 4.47989 14.1396 4.25796 14.1396 3.98531C14.1396 3.71265 14.3616 3.49072 14.6342 3.49072C14.9069 3.49072 15.1288 3.71265 15.1288 3.98531C15.1288 4.25796 14.9069 4.47989 14.6342 4.47989ZM14.6342 3.75342C14.5065 3.75342 14.4024 3.85734 14.4024 3.98512C14.4024 4.1129 14.5063 4.217 14.6342 4.217C14.7622 4.217 14.8659 4.11309 14.8659 3.98512C14.8659 3.85715 14.762 3.75342 14.6342 3.75342Z" fill="black"/>
<path d="M6.89546 4.47989C6.6228 4.47989 6.40088 4.25796 6.40088 3.98531C6.40088 3.71265 6.6228 3.49072 6.89546 3.49072C7.16812 3.49072 7.39004 3.71265 7.39004 3.98531C7.39004 4.25796 7.16812 4.47989 6.89546 4.47989ZM6.89546 3.75342C6.76768 3.75342 6.66358 3.85734 6.66358 3.98512C6.66358 4.1129 6.7675 4.217 6.89546 4.217C7.02343 4.217 7.12716 4.11309 7.12716 3.98512C7.12716 3.85715 7.02324 3.75342 6.89546 3.75342Z" fill="black"/>
<path d="M10.4449 8.43659C10.1401 8.43659 9.89209 8.18856 9.89209 7.88382C9.89209 7.57909 10.1401 7.33105 10.4449 7.33105C10.7496 7.33105 10.9976 7.57909 10.9976 7.88382C10.9976 8.18856 10.7496 8.43659 10.4449 8.43659ZM10.4449 7.62466C10.302 7.62466 10.1857 7.7408 10.1857 7.88361C10.1857 8.02643 10.3018 8.14278 10.4449 8.14278C10.5879 8.14278 10.7038 8.02664 10.7038 7.88361C10.7038 7.74059 10.5877 7.62466 10.4449 7.62466Z" fill="black"/>
<path d="M15.4488 14.3214C15.144 14.3214 14.896 14.0733 14.896 13.7686C14.896 13.4639 15.144 13.2158 15.4488 13.2158C15.7535 13.2158 16.0015 13.4639 16.0015 13.7686C16.0015 14.0733 15.7535 14.3214 15.4488 14.3214ZM15.4488 13.5094C15.306 13.5094 15.1896 13.6256 15.1896 13.7684C15.1896 13.9112 15.3057 14.0275 15.4488 14.0275C15.5918 14.0275 15.7077 13.9114 15.7077 13.7684C15.7077 13.6254 15.5916 13.5094 15.4488 13.5094Z" fill="black"/>
<path d="M5.96488 14.4962C5.66014 14.4962 5.41211 14.2481 5.41211 13.9434C5.41211 13.6387 5.66014 13.3906 5.96488 13.3906C6.26962 13.3906 6.51765 13.6387 6.51765 13.9434C6.51765 14.2481 6.26962 14.4962 5.96488 14.4962ZM5.96488 13.6842C5.82207 13.6842 5.70572 13.8004 5.70572 13.9432C5.70572 14.086 5.82186 14.2023 5.96488 14.2023C6.1079 14.2023 6.22383 14.0862 6.22383 13.9432C6.22383 13.8002 6.10769 13.6842 5.96488 13.6842Z" fill="black"/>
<path d="M6.92645 5.64733C5.99524 5.64733 5.2373 4.88939 5.2373 3.95818C5.2373 3.02697 5.99524 2.26904 6.92645 2.26904C7.85766 2.26904 8.61559 3.02697 8.61559 3.95818C8.61559 4.88939 7.85766 5.64733 6.92645 5.64733ZM6.92645 3.16624C6.49005 3.16624 6.13514 3.52114 6.13514 3.95754C6.13514 4.39395 6.49005 4.74949 6.92645 4.74949C7.36286 4.74949 7.71839 4.39459 7.71839 3.95754C7.71839 3.5205 7.3635 3.16624 6.92645 3.16624Z" fill="black"/>
<path d="M14.6052 5.64733C13.6739 5.64733 12.916 4.88939 12.916 3.95818C12.916 3.02697 13.6739 2.26904 14.6052 2.26904C15.5364 2.26904 16.2943 3.02697 16.2943 3.95818C16.2943 4.88939 15.5364 5.64733 14.6052 5.64733ZM14.6052 3.16624C14.1687 3.16624 13.8132 3.52114 13.8132 3.95754C13.8132 4.39395 14.1681 4.74949 14.6052 4.74949C15.0422 4.74949 15.3965 4.39459 15.3965 3.95754C15.3965 3.5205 15.0416 3.16624 14.6052 3.16624Z" fill="black"/>
</svg>
