<?xml version="1.0" encoding="UTF-8"?>
<!DOCTYPE svg PUBLIC "-//W3C//DTD SVG 1.1//EN" "http://www.w3.org/Graphics/SVG/1.1/DTD/svg11.dtd">
<svg xmlns="http://www.w3.org/2000/svg" version="1.1" width="57px" height="57px" style="shape-rendering:geometricPrecision; text-rendering:geometricPrecision; image-rendering:optimizeQuality; fill-rule:evenodd; clip-rule:evenodd" xmlns:xlink="http://www.w3.org/1999/xlink">
<g><path style="opacity:0.849" fill="#bcbcbc" d="M 10.5,8.5 C 22.8378,8.33346 35.1712,8.50012 47.5,9C 48,9.5 48.5,10 49,10.5C 50.6227,16.3354 51.456,22.3354 51.5,28.5C 51.3333,31.5 51.1667,34.5 51,37.5C 50.1146,41.1152 48.9479,44.6152 47.5,48C 34.9244,48.8214 22.4244,48.6548 10,47.5C 8.89684,41.2442 8.39684,34.9109 8.5,28.5C 8.66667,23.1667 8.83333,17.8333 9,12.5C 9.4101,11.0993 9.9101,9.76597 10.5,8.5 Z M 13.5,12.5 C 24.1667,12.5 34.8333,12.5 45.5,12.5C 45.5,14.1667 45.5,15.8333 45.5,17.5C 40.1032,17.2154 34.7698,17.5488 29.5,18.5C 28.8076,19.0253 28.3076,19.6919 28,20.5C 27.3333,25.8333 27.3333,31.1667 28,36.5C 28.3076,37.3081 28.8076,37.9747 29.5,38.5C 34.7698,39.4512 40.1032,39.7846 45.5,39.5C 45.5,41.1667 45.5,42.8333 45.5,44.5C 34.8333,44.5 24.1667,44.5 13.5,44.5C 13.5,33.8333 13.5,23.1667 13.5,12.5 Z M 32.5,21.5 C 37.5,21.5 42.5,21.5 47.5,21.5C 47.5,26.1667 47.5,30.8333 47.5,35.5C 42.5,35.5 37.5,35.5 32.5,35.5C 32.5,30.8333 32.5,26.1667 32.5,21.5 Z"/></g>
<g><path style="opacity:0.808" fill="#bdbdbd" d="M 36.5,24.5 C 42.4877,24.664 43.821,27.164 40.5,32C 34.4034,32.1475 33.0701,29.6475 36.5,24.5 Z"/></g>
</svg>
