<svg width="32" height="32" viewBox="0 0 32 32" fill="none" xmlns="http://www.w3.org/2000/svg">
<rect width="32" height="32" rx="16" fill="#0047C3"/>
<mask id="mask0_2579_80395" style="mask-type:alpha" maskUnits="userSpaceOnUse" x="5" y="6" width="20" height="20">
<rect x="5.92188" y="6.60889" width="18.7822" height="18.7822" fill="#D9D9D9"/>
</mask>
<g mask="url(#mask0_2579_80395)">
<path d="M18.4426 17.174C18.7817 17.174 19.0621 17.0631 19.2839 16.8414C19.5056 16.6197 19.6165 16.3392 19.6165 16.0001C19.6165 15.661 19.5056 15.3806 19.2839 15.1588C19.0621 14.9371 18.7817 14.8262 18.4426 14.8262C18.1034 14.8262 17.823 14.9371 17.6013 15.1588C17.3795 15.3806 17.2687 15.661 17.2687 16.0001C17.2687 16.3392 17.3795 16.6197 17.6013 16.8414C17.823 17.0631 18.1034 17.174 18.4426 17.174ZM16.3296 19.5218C15.9383 19.5218 15.6057 19.3848 15.3318 19.1109C15.0579 18.837 14.9209 18.5044 14.9209 18.1131V13.8871C14.9209 13.4958 15.0579 13.1632 15.3318 12.8893C15.6057 12.6154 15.9383 12.4785 16.3296 12.4785H21.3382C21.7295 12.4785 22.0621 12.6154 22.336 12.8893C22.6099 13.1632 22.7468 13.4958 22.7468 13.8871V18.1131C22.7468 18.5044 22.6099 18.837 22.336 19.1109C22.0621 19.3848 21.7295 19.5218 21.3382 19.5218H16.3296ZM10.0688 22.6522C9.67753 22.6522 9.34492 22.5152 9.07102 22.2413C8.79711 21.9674 8.66016 21.6348 8.66016 21.2435V10.7568C8.66016 10.3655 8.79711 10.0329 9.07102 9.75894C9.34492 9.48504 9.67753 9.34808 10.0688 9.34808H20.5556C20.9469 9.34808 21.2795 9.48504 21.5534 9.75894C21.8273 10.0329 21.9642 10.3655 21.9642 10.7568V11.3046H16.3296C15.56 11.3046 14.9373 11.5425 14.4615 12.0183C13.9852 12.4946 13.747 13.1176 13.747 13.8871V18.1131C13.747 18.8827 13.9852 19.5054 14.4615 19.9812C14.9373 20.4575 15.56 20.6957 16.3296 20.6957H21.9642V21.2435C21.9642 21.6348 21.8273 21.9674 21.5534 22.2413C21.2795 22.5152 20.9469 22.6522 20.5556 22.6522H10.0688Z" fill="#00FFB3"/>
</g>
</svg>
