<svg width="12" height="15" viewBox="0 0 12 15" fill="none" xmlns="http://www.w3.org/2000/svg">
<path d="M1.66602 14.1667V9.16671H0.666016V5.50004C0.666016 5.13337 0.796682 4.81937 1.05802 4.55804C1.3189 4.29715 1.63268 4.16671 1.99935 4.16671H3.99935C4.36602 4.16671 4.68002 4.29715 4.94135 4.55804C5.20224 4.81937 5.33268 5.13337 5.33268 5.50004V9.16671H4.33268V14.1667H1.66602ZM2.99935 3.50004C2.63268 3.50004 2.3189 3.36937 2.05802 3.10804C1.79668 2.84715 1.66602 2.53337 1.66602 2.16671C1.66602 1.80004 1.79668 1.48604 2.05802 1.22471C2.3189 0.963818 2.63268 0.833374 2.99935 0.833374C3.36602 0.833374 3.68002 0.963818 3.94135 1.22471C4.20224 1.48604 4.33268 1.80004 4.33268 2.16671C4.33268 2.53337 4.20224 2.84715 3.94135 3.10804C3.68002 3.36937 3.36602 3.50004 2.99935 3.50004ZM7.99935 14.1667V10.1667H5.99935L7.69935 5.06671C7.78824 4.77782 7.95224 4.5556 8.19135 4.40004C8.43001 4.24448 8.69935 4.16671 8.99935 4.16671C9.29935 4.16671 9.56868 4.24448 9.80735 4.40004C10.0465 4.5556 10.2105 4.77782 10.2993 5.06671L11.9993 10.1667H9.99935V14.1667H7.99935ZM8.99935 3.50004C8.63268 3.50004 8.3189 3.36937 8.05801 3.10804C7.79668 2.84715 7.66601 2.53337 7.66601 2.16671C7.66601 1.80004 7.79668 1.48604 8.05801 1.22471C8.3189 0.963818 8.63268 0.833374 8.99935 0.833374C9.36601 0.833374 9.68001 0.963818 9.94135 1.22471C10.2022 1.48604 10.3327 1.80004 10.3327 2.16671C10.3327 2.53337 10.2022 2.84715 9.94135 3.10804C9.68001 3.36937 9.36601 3.50004 8.99935 3.50004Z" fill="#828282"/>
</svg>
